<svg xmlns="http://www.w3.org/2000/svg" viewBox="0 0 750 500"><g id="freepik--Shadow--inject-57"><ellipse cx="375" cy="416.92" rx="288.38" ry="37.35" style="fill:#ebebeb"></ellipse></g><g id="freepik--Floor--inject-57"><rect x="47.51" y="304.04" width="654.98" height="10.58" style="fill:#c7c7c7"></rect><path d="M81.21,304a28.23,28.23,0,0,1,0,10.58,24.37,24.37,0,0,1-.5-5.29A25,25,0,0,1,81.21,304Z" style="fill:#263238"></path><path d="M120.38,304a25,25,0,0,1,.5,5.29,24.37,24.37,0,0,1-.5,5.29,25,25,0,0,1-.5-5.29A25.62,25.62,0,0,1,120.38,304Z" style="fill:#263238"></path><path d="M159.55,304a28.23,28.23,0,0,1,0,10.58,28.23,28.23,0,0,1,0-10.58Z" style="fill:#263238"></path><path d="M198.73,304a28.8,28.8,0,0,1,0,10.58,28.23,28.23,0,0,1,0-10.58Z" style="fill:#263238"></path><path d="M237.9,304a28.23,28.23,0,0,1,0,10.58,28.23,28.23,0,0,1,0-10.58Z" style="fill:#263238"></path><path d="M277.07,304a25.62,25.62,0,0,1,.5,5.29,25,25,0,0,1-.5,5.29,24.37,24.37,0,0,1-.5-5.29A25.62,25.62,0,0,1,277.07,304Z" style="fill:#263238"></path><path d="M316.24,304a25,25,0,0,1,.5,5.29,24.37,24.37,0,0,1-.5,5.29,28.23,28.23,0,0,1,0-10.58Z" style="fill:#263238"></path><path d="M355.41,304a28.23,28.23,0,0,1,0,10.58,28.23,28.23,0,0,1,0-10.58Z" style="fill:#263238"></path><path d="M394.59,304a28.23,28.23,0,0,1,0,10.58,28.23,28.23,0,0,1,0-10.58Z" style="fill:#263238"></path><path d="M433.76,304a28.23,28.23,0,0,1,0,10.58,24.37,24.37,0,0,1-.5-5.29A25,25,0,0,1,433.76,304Z" style="fill:#263238"></path><path d="M472.93,304a25.62,25.62,0,0,1,.5,5.29,24.37,24.37,0,0,1-.5,5.29,25,25,0,0,1-.5-5.29A25.62,25.62,0,0,1,472.93,304Z" style="fill:#263238"></path><path d="M512.1,304a28.23,28.23,0,0,1,0,10.58,28.23,28.23,0,0,1,0-10.58Z" style="fill:#263238"></path><path d="M551.28,304a28.8,28.8,0,0,1,0,10.58,28.23,28.23,0,0,1,0-10.58Z" style="fill:#263238"></path><path d="M590.45,304a28.23,28.23,0,0,1,0,10.58,28.23,28.23,0,0,1,0-10.58Z" style="fill:#263238"></path><path d="M629.62,304a25.62,25.62,0,0,1,.5,5.29,25,25,0,0,1-.5,5.29,24.37,24.37,0,0,1-.5-5.29A25,25,0,0,1,629.62,304Z" style="fill:#263238"></path><path d="M668.79,304a25,25,0,0,1,.5,5.29,24.37,24.37,0,0,1-.5,5.29,28.23,28.23,0,0,1,0-10.58Z" style="fill:#263238"></path><polygon points="41.23 314.62 124.68 314.37 208.12 314.29 375 314.12 541.88 314.29 625.32 314.37 708.76 314.62 625.32 314.86 541.88 314.95 375 315.12 208.12 314.95 124.68 314.86 41.23 314.62" style="fill:#263238"></polygon></g><g id="freepik--Trees--inject-57"><path d="M83.7,220.5s22.6,50.19-14.29,50.24-13-51.92-13-51.92-8.54-3.74,1.33-31.77S72,159,76.12,159c5.2,0,10,12.12,6.52,30.74C82.64,189.76,95.65,213,83.7,220.5Z" style="fill:#37474f"></path><polygon points="66.17 304.04 69.65 228.39 73.28 304.03 66.17 304.04" style="fill:#263238"></polygon><polygon points="68.23 260.11 81.63 244.43 71.13 262.18 68.23 260.11" style="fill:#263238"></polygon><path d="M87.72,225.93s-10.53-4.16-18.86,10.38c-8.55,14.91,2.2,24.71,10.71,18.86,0,0,6.69,14,20.05,10.66s15.52-14,15.52-14,11.85.82,12.18-8S119,227.07,119,227.07s-.53-22-14.89-21.86S87.72,225.93,87.72,225.93Z" style="fill:#455a64"></path><polygon points="97.57 304.04 100.51 238.44 103.59 304.04 97.57 304.04" style="fill:#263238"></polygon><polygon points="99.64 263.1 90.4 244.71 101.16 260.22 99.64 263.1" style="fill:#263238"></polygon><path d="M694.36,220.5s22.6,50.19-14.29,50.24-13-51.92-13-51.92-8.54-3.74,1.33-31.77,14.31-28,18.42-28c5.2,0,10.05,12.12,6.53,30.74C693.31,189.76,706.31,213,694.36,220.5Z" style="fill:#37474f"></path><polygon points="676.84 304.04 680.31 228.39 683.95 304.03 676.84 304.04" style="fill:#263238"></polygon><polygon points="678.9 260.11 692.29 244.43 681.79 262.18 678.9 260.11" style="fill:#263238"></polygon><path d="M167.08,230.9s-19.7,44,12.62,44S191,229.37,191,229.37s7.48-3.3-1.23-27.82S177.21,177,173.61,177c-4.56,0-8.78,10.63-5.66,26.93C168,204,156.6,224.32,167.08,230.9Z" style="fill:#37474f"></path><polygon points="182.6 304.04 179.41 237.78 176.37 304.04 182.6 304.04" style="fill:#263238"></polygon><polygon points="180.71 265.56 168.95 251.85 178.18 267.37 180.71 265.56" style="fill:#263238"></polygon><path d="M627.92,225.93s-10.52-4.16-18.86,10.38c-8.54,14.91,2.2,24.71,10.71,18.86,0,0,6.7,14,20.06,10.66s15.51-14,15.51-14,11.86.82,12.18-8-8.36-16.69-8.36-16.69-.53-22-14.89-21.86S627.92,225.93,627.92,225.93Z" style="fill:#455a64"></path><polygon points="637.78 304.04 640.71 238.44 643.79 304.04 637.78 304.04" style="fill:#263238"></polygon><polygon points="639.81 263.02 630.61 244.71 641.63 260.19 639.81 263.02" style="fill:#263238"></polygon></g><g id="freepik--Car--inject-57"><path d="M232.88,256.85l.69-2.38s-8.81-9.45-11.34-10.61-18,1.75-18.87,3.12-.51,7.33-.3,8.38,14,3.41,16.32,3.51S232.88,256.85,232.88,256.85Z" style="fill:#FFC727"></path><path d="M233.57,254.47l-.69,2.38s5.86,4.43,6.08,4.69-.14,1.52-.14,1.52h5.94v-8.59a13.94,13.94,0,0,1-2.78,1.19C241.13,255.81,233.57,254.47,233.57,254.47Z" style="fill:#FFC727"></path><g style="opacity:0.1"><path d="M232.88,256.85l.69-2.38s-8.81-9.45-11.34-10.61-18,1.75-18.87,3.12-.51,7.33-.3,8.38,14,3.41,16.32,3.51S232.88,256.85,232.88,256.85Z"></path><path d="M233.57,254.47l-.69,2.38s5.86,4.43,6.08,4.69-.14,1.52-.14,1.52h5.94v-8.59a13.94,13.94,0,0,1-2.78,1.19C241.13,255.81,233.57,254.47,233.57,254.47Z"></path></g><path d="M342.47,347.7c.63,23,9.75,51.12,30.09,51.12,2,0,29.22.52,31-.07,16.39-5.44,26.1-35.33,24.26-61.68-1.44-20.52-8-43.51-25.1-46.27-1.14-.18-29.78,0-31,0C351.17,290.8,341.78,323,342.47,347.7Z" style="fill:#263238"></path><path d="M375.1,347.7c.64,23,9.76,51.12,30.09,51.12s29.64-32.54,27.59-61.75c-1.53-21.89-8.59-46.27-28.45-46.27C383.81,290.8,374.42,323,375.1,347.7Z" style="fill:#37474f"></path><path d="M383.57,347c.52,17.68,7.32,39.37,22.35,39.37s21.83-25.06,20.26-47.55c-1.18-16.86-6.45-35.63-21.13-35.63C389.88,303.22,383,328,383.57,347Z" style="fill:#c7c7c7"></path><path d="M409.86,307c-.31,7.19-1.39,30.08-2.95,30.08-1.32,0-5.17-21.61-6.53-29.42a11.43,11.43,0,0,1,5.31-1.31A13.35,13.35,0,0,1,409.86,307Z" style="fill:#263238"></path><path d="M404.09,338.48c-.83.62-8.19-9.7-13.54-17.44a32.59,32.59,0,0,1,4.82-9C398.84,320.89,405.22,337.64,404.09,338.48Z" style="fill:#263238"></path><path d="M402.7,341.14c-.38.94-8.29-2.68-15.42-6.16a70,70,0,0,1,1.61-8.56C395.42,332.47,403.16,340,402.7,341.14Z" style="fill:#263238"></path><path d="M402,344.37c.07,1.08-7.94,2.6-15.21,3.76l-.06-1.27c-.07-2.3,0-4.68.13-7.1C394.1,341.26,401.87,343.16,402,344.37Z" style="fill:#263238"></path><path d="M389,363.11a71.17,71.17,0,0,1-1.84-9.78c7-3.24,15.12-6.73,15.73-5.61S395.1,357.23,389,363.11Z" style="fill:#263238"></path><path d="M397.66,379.56a27.47,27.47,0,0,1-6.44-9.86c4.48-7.65,12.15-20.33,13.34-19.52S399.61,372.83,397.66,379.56Z" style="fill:#263238"></path><path d="M413.35,381a11.14,11.14,0,0,1-6.68,2.24,11.85,11.85,0,0,1-2.76-.31c.24-6,1.34-30.91,3-30.91C408.18,352,411.93,372.85,413.35,381Z" style="fill:#263238"></path><path d="M422,366.46a37.56,37.56,0,0,1-4.07,9.44c-3.48-8.91-9.08-23.75-8-24.55C410.69,350.78,416.91,359.24,422,366.46Z" style="fill:#263238"></path><path d="M424.42,353.33a73.76,73.76,0,0,1-1.12,7.83c-5.7-5.38-11.56-11.26-11.14-12.3C412.48,348,418.36,350.51,424.42,353.33Z" style="fill:#263238"></path><path d="M424.7,341.74c.1,2.42.11,4.86,0,7.28-6-1.27-11.67-2.74-11.74-3.79S418.64,342.93,424.7,341.74Z" style="fill:#263238"></path><path d="M424.39,337.13c-5.85,2.78-11.71,5.25-12.22,4.28s5.56-7.66,10.93-13.27A81.4,81.4,0,0,1,424.39,337.13Z" style="fill:#263238"></path><path d="M421.42,321.62s0,0,0,0c-4.33,7.48-10.41,17.54-11.47,16.81s3.71-19.53,5.82-27.4A29.22,29.22,0,0,1,421.42,321.62Z" style="fill:#263238"></path><path d="M112.22,347.7c.63,23,9.75,51.12,30.09,51.12,2,0,29.22.52,31-.07,16.39-5.44,26.1-35.33,24.26-61.68-1.44-20.52-8-43.51-25.1-46.27-1.14-.18-29.78,0-31,0C120.92,290.8,111.54,323,112.22,347.7Z" style="fill:#263238"></path><path d="M144.86,347.7c.63,23,9.75,51.12,30.08,51.12s29.64-32.54,27.6-61.75c-1.54-21.89-8.6-46.27-28.45-46.27C153.56,290.8,144.17,323,144.86,347.7Z" style="fill:#37474f"></path><path d="M153.32,347c.52,17.68,7.32,39.37,22.35,39.37s21.83-25.06,20.26-47.55c-1.18-16.86-6.45-35.63-21.13-35.63C159.63,303.22,152.76,328,153.32,347Z" style="fill:#c7c7c7"></path><path d="M179.61,307c-.31,7.19-1.39,30.08-3,30.08-1.32,0-5.17-21.61-6.53-29.42a11.43,11.43,0,0,1,5.31-1.31A13.3,13.3,0,0,1,179.61,307Z" style="fill:#263238"></path><path d="M173.84,338.48c-.83.62-8.19-9.7-13.54-17.44a32.85,32.85,0,0,1,4.82-9C168.59,320.89,175,337.64,173.84,338.48Z" style="fill:#263238"></path><path d="M172.45,341.14c-.38.94-8.29-2.68-15.42-6.16a70,70,0,0,1,1.61-8.56C165.17,332.47,172.91,340,172.45,341.14Z" style="fill:#263238"></path><path d="M171.71,344.37c.07,1.08-7.94,2.6-15.21,3.76,0-.43,0-.84-.05-1.27-.08-2.3,0-4.68.12-7.1C163.85,341.26,171.62,343.16,171.71,344.37Z" style="fill:#263238"></path><path d="M158.76,363.11a71.17,71.17,0,0,1-1.84-9.78c7-3.24,15.12-6.73,15.73-5.61S164.85,357.23,158.76,363.11Z" style="fill:#263238"></path><path d="M167.41,379.56A27.47,27.47,0,0,1,161,369.7c4.48-7.65,12.15-20.33,13.34-19.52S169.36,372.83,167.41,379.56Z" style="fill:#263238"></path><path d="M183.1,381a11.14,11.14,0,0,1-6.68,2.24,11.85,11.85,0,0,1-2.76-.31c.24-6,1.34-30.91,3-30.91C177.93,352,181.68,372.85,183.1,381Z" style="fill:#263238"></path><path d="M191.76,366.46a37.56,37.56,0,0,1-4.07,9.44c-3.48-8.91-9.08-23.75-8-24.55C180.44,350.78,186.66,359.24,191.76,366.46Z" style="fill:#263238"></path><path d="M194.17,353.33a73.76,73.76,0,0,1-1.12,7.83c-5.7-5.38-11.55-11.26-11.14-12.3C182.23,348,188.11,350.51,194.17,353.33Z" style="fill:#263238"></path><path d="M194.45,341.74c.1,2.42.11,4.86,0,7.28-6-1.27-11.67-2.74-11.74-3.79S188.39,342.93,194.45,341.74Z" style="fill:#263238"></path><path d="M194.14,337.13c-5.85,2.78-11.71,5.25-12.22,4.28s5.56-7.66,10.93-13.27A81.4,81.4,0,0,1,194.14,337.13Z" style="fill:#263238"></path><path d="M191.17,321.62s0,0,0,0c-4.33,7.48-10.41,17.54-11.47,16.81s3.71-19.53,5.82-27.4A29.22,29.22,0,0,1,191.17,321.62Z" style="fill:#263238"></path><path d="M551.93,347.7c.63,23,9.75,51.12,30.09,51.12,2,0,29.22.52,31-.07,16.39-5.44,26.1-35.33,24.26-61.68-1.44-20.52-8-43.51-25.1-46.27-1.14-.18-29.78,0-31,0C560.63,290.8,551.25,323,551.93,347.7Z" style="fill:#263238"></path><path d="M584.57,347.7c.63,23,9.75,51.12,30.08,51.12s29.64-32.54,27.6-61.75c-1.54-21.89-8.6-46.27-28.45-46.27C593.27,290.8,583.88,323,584.57,347.7Z" style="fill:#37474f"></path><path d="M593,347c.52,17.68,7.32,39.37,22.35,39.37s21.83-25.06,20.26-47.55c-1.18-16.86-6.45-35.63-21.13-35.63C599.34,303.22,592.47,328,593,347Z" style="fill:#c7c7c7"></path><path d="M619.32,307c-.31,7.19-1.39,30.08-3,30.08-1.32,0-5.17-21.61-6.53-29.42a11.44,11.44,0,0,1,5.32-1.31A13.28,13.28,0,0,1,619.32,307Z" style="fill:#263238"></path><path d="M613.55,338.48c-.83.62-8.19-9.7-13.54-17.44a33.12,33.12,0,0,1,4.82-9C608.3,320.89,614.68,337.64,613.55,338.48Z" style="fill:#263238"></path><path d="M612.16,341.14c-.37.94-8.29-2.68-15.42-6.16a70,70,0,0,1,1.61-8.56C604.88,332.47,612.62,340,612.16,341.14Z" style="fill:#263238"></path><path d="M611.42,344.37c.07,1.08-7.94,2.6-15.21,3.76,0-.43,0-.84-.05-1.27-.08-2.3,0-4.68.12-7.1C603.56,341.26,611.33,343.16,611.42,344.37Z" style="fill:#263238"></path><path d="M598.47,363.11a71.17,71.17,0,0,1-1.84-9.78c7-3.24,15.12-6.73,15.73-5.61S604.56,357.23,598.47,363.11Z" style="fill:#263238"></path><path d="M607.12,379.56a27.47,27.47,0,0,1-6.44-9.86c4.48-7.65,12.15-20.33,13.34-19.52S609.07,372.83,607.12,379.56Z" style="fill:#263238"></path><path d="M622.81,381a11.14,11.14,0,0,1-6.68,2.24,11.85,11.85,0,0,1-2.76-.31c.24-6,1.34-30.91,3-30.91C617.64,352,621.39,372.85,622.81,381Z" style="fill:#263238"></path><path d="M631.47,366.46a37.56,37.56,0,0,1-4.07,9.44c-3.48-8.91-9.08-23.75-8-24.55C620.16,350.78,626.37,359.24,631.47,366.46Z" style="fill:#263238"></path><path d="M633.88,353.33a71.27,71.27,0,0,1-1.12,7.83c-5.7-5.38-11.55-11.26-11.14-12.3C621.94,348,627.82,350.51,633.88,353.33Z" style="fill:#263238"></path><path d="M634.16,341.74c.1,2.42.11,4.86,0,7.28-6-1.27-11.67-2.74-11.74-3.79S628.1,342.93,634.16,341.74Z" style="fill:#263238"></path><path d="M633.85,337.13c-5.85,2.78-11.71,5.25-12.22,4.28s5.56-7.66,10.93-13.27A81.4,81.4,0,0,1,633.85,337.13Z" style="fill:#263238"></path><path d="M630.88,321.62s0,0,0,0c-4.33,7.48-10.41,17.54-11.47,16.81s3.71-19.53,5.82-27.4A29.22,29.22,0,0,1,630.88,321.62Z" style="fill:#263238"></path><path d="M433.06,381.91H570.17s12.53-20.4,13.24-23.63-2.39-68.19,31.17-68.19c29.24,0,27.94,65.22,27.94,65.22l3.58-5.48.81-9.53-2.28-5.64s4.29-40,2.28-45.51-19.87-28.59-21.08-29.8-20.94-4.57-22.28-5.77S547,206.86,522.47,201.49s-78.18-9.66-112.61-9.66-113.19,9.3-119.63,11.45-65.51,57.63-65.51,57.63-63,8.1-71.42,10-40.54,23.23-41.88,25.91-5.51,32.62-5.51,32.62-3.22,7.39-3.35,9.13,3.89,30.21,4.43,31.68,6.44,8.19,7.78,8.73,224.92,3.49,227.66,3,15.63-4.29,17.78-5.73S366.5,290.8,405,290.8C438.43,290.8,435.75,354.93,433.06,381.91Z" style="fill:#FFC727"></path><path d="M246,381.06c-61.74-.78-130.48-1.81-131.23-2.1-1.34-.54-7.25-7.25-7.78-8.72s-4.57-29.94-4.42-31.68,3.34-9.14,3.34-9.14,4.16-29.94,5.5-32.62,33.43-24,41.89-25.9,71.42-10,71.42-10-57,12.75-60,15.3-25,26.6-27.56,30.17-2.94,30.6-3.75,32.83-6.18,16.21-6.72,18.62,1.88,12.09,2.68,12.88S240.82,380.64,246,381.06Z" style="opacity:0.1"></path><path d="M433.05,381.91c2.46-24.49,4.88-79.59-19.71-89.54,12.56,2.28,30.1,22.87,30.82,76.66l126,12.88Z" style="opacity:0.1"></path><g style="opacity:0.6000000000000001"><path d="M566.94,347.14a152.63,152.63,0,0,1,8.3-38.12,87.34,87.34,0,0,1,3.86-9,64.79,64.79,0,0,1,5-8.47,42.91,42.91,0,0,1,6.45-7.47,36.21,36.21,0,0,1,3.86-3.11,30.3,30.3,0,0,1,4.36-2.4,25.18,25.18,0,0,1,9.65-2.28,23.42,23.42,0,0,1,9.8,1.48c6.28,2.43,11.06,7.54,14.44,13.11a72.38,72.38,0,0,1,7.53,18.07,113.93,113.93,0,0,1,3.52,19.21,114.37,114.37,0,0,0-4.09-19.05,72.16,72.16,0,0,0-7.75-17.74C628.42,286,623.8,281,617.8,278.78a22.15,22.15,0,0,0-9.34-1.36,24.29,24.29,0,0,0-9.22,2.23,29.84,29.84,0,0,0-4.19,2.28,36.85,36.85,0,0,0-3.75,3,42,42,0,0,0-6.31,7.25,80.63,80.63,0,0,0-8.89,17.18A141.73,141.73,0,0,0,570.44,328,170.61,170.61,0,0,0,566.94,347.14Z" style="fill:#fff"></path><path d="M359,347.14a153,153,0,0,1,8-37.29,81.14,81.14,0,0,1,8.38-17.22,52.56,52.56,0,0,1,6.06-7.51,35.56,35.56,0,0,1,7.74-5.81,29.24,29.24,0,0,1,9.26-2.91,28.58,28.58,0,0,1,9.67.56c6.37,1.5,11.85,5.59,15.86,10.58a61.48,61.48,0,0,1,9.3,16.71,96.08,96.08,0,0,1,4.89,18.44,95.52,95.52,0,0,0-5.45-18.22,60.8,60.8,0,0,0-9.46-16.34c-4-4.78-9.29-8.71-15.4-10.1a27.51,27.51,0,0,0-9.27-.48,28.64,28.64,0,0,0-8.84,2.82,35.06,35.06,0,0,0-7.49,5.57,51,51,0,0,0-5.95,7.3,85.17,85.17,0,0,0-8.43,16.93,145.71,145.71,0,0,0-5.46,18.22A167.8,167.8,0,0,0,359,347.14Z" style="fill:#fff"></path><path d="M434.94,299.72c8.75-2.53,17.48-5.14,26.25-7.6h0l49-4.67,49-4.35h-.06l16-5.54,16.08-5.45-16,5.77-16,5.69h-.06l-49,4.64-49,4.34h0C452.54,295,443.73,297.32,434.94,299.72Z" style="fill:#fff"></path><path d="M231.71,260.94l-26.6,11.35-26.64,11.27.13-.11L168,303.36l-.26-.43c25.68.23,51.37.33,77,.67l-.18,0,30.6-18,0,0h0l38.14-11.35,38.17-11.22L313.5,274.69l-38.09,11.49.07,0L245,304.28l-.09.05h-.1c-25.68-.15-51.36-.54-77-.81h-.49l.23-.42,10.7-19.87,0-.08.08,0L205,272Z" style="fill:#fff"></path></g><g style="opacity:0.30000000000000004"><path d="M229.73,260.91l-53.68,12.76-6.7,1.64c-1.11.27-2.21.58-3.32.87l-.77.26a2,2,0,0,0-.37.14l-.29.25a11.79,11.79,0,0,0-1.15,1.18c-3,3.44-5.73,7.15-8.54,10.78-5.56,7.33-11,14.72-16.51,22.11,5.23-7.57,10.54-15.08,16-22.48,2.74-3.7,5.48-7.38,8.5-10.9a10,10,0,0,1,1.25-1.29l.37-.3a2.56,2.56,0,0,1,.43-.17l.86-.3c1.11-.3,2.23-.63,3.34-.9l6.7-1.68q13.42-3.17,26.89-6.17T229.73,260.91Z"></path><path d="M402.93,263.06l-16.33,5.15-16.36,5.06-32.66,10.27c-5.45,1.71-10.9,3.41-16.29,5.25a50.73,50.73,0,0,0-7.74,3.52l-7.64,3.87-15.26,7.75-15.32,7.64,15.14-8,15.21-7.88,7.6-3.93a49.64,49.64,0,0,1,7.79-3.61c5.4-1.89,10.83-3.64,16.27-5.38l32.74-10,16.4-4.92Z"></path><path d="M444.16,364.83l15.76-.34,15.77-.22,31.52-.48,31.53-.3,15.76-.24,3.94-.07,2-.07c.31,0,.68,0,.94-.07s.5-.34.74-.54c1.74-1.95,3.29-4.09,4.85-6.2-1.51,2.15-3,4.32-4.71,6.33-.24.21-.41.56-.79.62a7.64,7.64,0,0,1-1,.1l-2,.12-3.94.17-15.76.39-31.53.56-31.53.21-15.76.09Z"></path><path d="M554.68,259.23q2.49,12,4.86,24v.11l-3.15,19-3.23,19q-3.24,19-6.81,38c1.94-12.72,3.94-25.43,6.08-38.12l3.21-19,3.3-19v.1Q556.75,271.33,554.68,259.23Z"></path><path d="M467.7,260.82q-3,15.81-6.11,31.58v-.06q-.19,17.21-.53,34.41L460.69,344l-.51,17.2,0-17.21.15-17.21q.18-17.21.54-34.41v-.07Q464.2,276.52,467.7,260.82Z"></path><path d="M585.59,251.34c1.13,3.41,2.15,6.85,3.18,10.29s2,6.9,2.88,10.38l0,.09,0,.08c-.56,2.54-1.1,5.07-1.71,7.59s-1.2,5-1.87,7.55c.4-2.57.85-5.12,1.33-7.67s1-5.08,1.5-7.62v.18c-1-3.45-1.88-6.93-2.81-10.39S586.35,254.85,585.59,251.34Z"></path><polygon points="441.29 322.69 457.57 321.45 473.85 320.34 506.42 318.12 539 316.17 555.3 315.19 571.6 314.35 555.32 315.59 539.04 316.7 506.47 318.92 473.89 320.88 457.6 321.85 441.29 322.69"></polygon><path d="M534.14,264c.32,1.32.58,2.66.88,4l-.22-.17c2.54-.29,5.09-.6,7.64-.83s5.09-.49,7.65-.68l-.33.45-.77-3.68.35.25c-2.82.17-5.65.34-8.48.4,2.8-.42,5.61-.74,8.43-1.05l.28,0,.06.29.85,3.66.1.41-.43,0c-2.55.27-5.1.48-7.65.67s-5.11.35-7.67.51h-.19l0-.18C534.46,266.71,534.28,265.36,534.14,264Z"></path><path d="M120,318.52c-1,5.29-2.26,10.51-3.49,15.73l-.5,2-.12.48-.06.24c0,.12,0,0-.1,0,0,.29.05.67.07,1,.1,1.36.24,2.71.31,4.08.18,2.73.34,5.46.4,8.15-.4-2.66-.7-5.29-1-7.91-.15-1.3-.25-2.63-.37-3.94l-.09-1a1.24,1.24,0,0,1,0-.52l.06-.24.11-.5.46-2C117.06,328.86,118.39,323.65,120,318.52Z"></path><path d="M320.3,318.52c1.08,2.67,2,5.37,3,8.07s1.88,5.43,2.72,8.17l0,.07v.05c0,2.05,0,4.09-.11,6.13s-.14,4.09-.27,6.13c-.14-2-.22-4.08-.28-6.13s-.08-4.08-.1-6.13l0,.12c-.95-2.71-1.77-5.46-2.65-8.19S321,321.31,320.3,318.52Z"></path><path d="M102.63,339.76l15.17,15.08-.08,0L172,356.61c9,.29,18.08.67,27.12.89l27.14-.06,108.57.26h0l22.05-5.34-22,5.61h0l-108.58.26-27.14-.05c-9.05-.26-18.09-.67-27.13-1l-54.24-2.13h-.06l0,0Z"></path></g><path d="M481.57,258.77c1.79,1.83,72.49-2.33,74.1-2.51s28.64-5.37,29.89-6.62-43-33.11-46.72-34.73-44.7-4.29-50.34-2C484.09,214.69,479.51,256.66,481.57,258.77Z" style="fill:#263238"></path><path d="M486.16,256.83c1.64,1.67,66.23-2.13,67.7-2.29s26.17-4.91,27.31-6-39.24-30.26-42.68-31.73-40.84-3.93-46-1.84C488.47,216.55,484.28,254.9,486.16,256.83Z" style="fill:#37474f"></path><g style="opacity:0.1"><path d="M531,215.61l-44.76,27.52c.77-8.08,2.21-17.79,3.84-23.47l8.94-5.49A292.78,292.78,0,0,1,531,215.61Z" style="fill:#fff"></path><path d="M566.06,236.08l-31.85,19.59c-5.82.31-12.32.63-18.62.9l42.65-26.23C560.87,232.24,563.53,234.19,566.06,236.08Z" style="fill:#fff"></path><path d="M579.15,246.28l-7.82,4.81c-1.87.41-3.84.82-5.77,1.22l12-7.37C578.15,245.43,578.69,245.88,579.15,246.28Z" style="fill:#fff"></path></g><path d="M535.44,216.13c1.26.2,15.88,37.93,15.6,38.67s2.89.13,2.62-.06-16-36.58-15.54-38.11C538.36,215.82,535.44,216.13,535.44,216.13Z" style="fill:#263238"></path><path d="M229.73,260.91c1.79,0,168.83,2.15,173.2,2.15s64.63-2.91,65.37-3.31,6.64-44.16,4.85-47.73c-.49-1-81.44-5.16-91.37-5.16s-91.37,3.55-95.67,4.3S226.77,260.87,229.73,260.91Z" style="fill:#263238"></path><path d="M234.93,258.8c1.68,0,158.65,2,162.75,2s62.41-2.73,63.1-3.11,4.63-39.08,2.94-42.43c-.46-.92-78.2-4.85-87.53-4.85s-85.86,3.33-89.9,4S232.15,258.77,234.93,258.8Z" style="fill:#37474f"></path><path d="M353.67,211.15l-78.31,48.16c-14.44-.17-26.54-.33-33.64-.42l75-46.14C328.81,212.19,342.42,211.6,353.67,211.15Zm50.53.39L325.48,260l16.82.21,77.76-47.82Zm31,47.64c7.22-.35,14-.7,18.76-1l7.54-4.64c.36-2.84.81-6.89,1.22-11.3Zm8.58-45.51-76.1,46.8,3.71,0,75.83-46.63Zm-143.06-.14h0l-53.41,32.84c-2.93,2.64-5.55,5-7.62,7l65.17-40.07Z" style="fill:#fff;opacity:0.1"></path><path d="M295.78,304.59c-2.34,2.33,1.79,16.82,5.37,17.9s28.1-2.33,30.78-3.05,30.25-8.95,32.58-11.45,4.47-23.09,2-24.52-43.86,9.3-48.33,10.56S297.75,302.62,295.78,304.59Z" style="fill:#fff"></path><path d="M109.4,312c1,1.86,7.66,8.77,9,9.72s9.4,2.3,10.34,1.77,6-11.68,5.9-13.56S123.91,287.67,122,288.08s-12.08,6.71-12.62,8.72S108.37,310,109.4,312Z" style="fill:#fff"></path><path d="M110,311.37c-.1,1.34,3.46,5.49,3.89,6a37.73,37.73,0,0,1-4.49-5.36c-1-2-.55-13.21,0-15.21s10.74-8.33,12.61-8.74c-2,.91-10.17,7.56-10.61,9.21S110.11,309.94,110,311.37Z" style="fill:#dbdbdb"></path><path d="M138.4,310.9c2.36-.82,50.88-2.28,60.41-2.28s72.22,1.47,76.52,2.95-5.37,27-9.13,28.86-64.17,6.71-68.33,6.71-51.32-6.66-54.14-8.54S134.51,312.24,138.4,310.9Z" style="fill:#263238"></path><path d="M273.28,327.28c-.2.52-.39,1-.6,1.55L139,326.41c-.14-.52-.25-1.05-.37-1.59Z" style="fill:#FFC727"></path><path d="M144.84,369H271.17c2.68,0-11-8.18-13.17-8.32s-101.21,0-103.22,0S142.56,369,144.84,369Z" style="fill:#263238"></path><path d="M112.85,363.61c1.36.23,15.39.5,17.72,0s7.7-12.76,7.34-14.59-10.79-8-12.13-8.46-10.8-.94-11.81,0S111.59,363.41,112.85,363.61Z" style="fill:#455a64"></path><path d="M294.52,347.14c-1.67,2.17,9.85,15.26,14.23,16.87S340,365.67,341,365.4s1-13.74.49-15.8-5.55-9.57-6.66-10.24-25.2,1.38-28.46,2.23S295.28,346.16,294.52,347.14Z" style="fill:#455a64"></path><path d="M492.29,254.61l-.7-2.38s8.82-9.45,11.34-10.61,18,1.75,18.88,3.12.51,7.33.3,8.38-14,3.41-16.33,3.51S492.29,254.61,492.29,254.61Z" style="fill:#FFC727"></path><path d="M491.59,252.23l.7,2.38s-5.87,4.43-6.08,4.69.14,1.52.14,1.52h-6v-8.59a14.22,14.22,0,0,0,2.78,1.19C484,253.57,491.59,252.23,491.59,252.23Z" style="fill:#FFC727"></path></g></svg>