<svg xmlns="http://www.w3.org/2000/svg" viewBox="0 0 500 500"><g id="freepik--background-simple--inject-117"><path d="M434.16,152.06l-2.4-3.9c-19.26-31.34-53.94-50.32-90.67-48.45a98.41,98.41,0,0,0-15.37,2c-33.79,7.15-63.18,32.37-75.37,64.69-7.17,19-9.17,40.88-22.77,56-17.7,19.63-47.75,20.25-74.16,19.43s-56.49-.12-74.1,19.59c-11,12.34-14.54,29.9-13.65,46.43C68,351.56,98.9,390.69,138.18,410.14s85.51,21.19,128.49,12.63c60.21-12,117.48-44.9,151.89-95.74S461.69,206.93,434.16,152.06Z" style="fill:#e0e0e0"></path></g><g id="freepik--Plant--inject-117"><path d="M72.85,406.31c-.92-3.2-2.89-6.28-5.94-7.6s-6.86-.59-10.11.59-6.44,2.76-9.89,3-7.35-1.43-8.38-4.73c-1-3.1.9-6.41,3.24-8.66a20.46,20.46,0,0,1,33.51,8" style="fill:#407BFF"></path><g style="opacity:0.5"><path d="M72.85,406.31c-.92-3.2-2.89-6.28-5.94-7.6s-6.86-.59-10.11.59-6.44,2.76-9.89,3-7.35-1.43-8.38-4.73c-1-3.1.9-6.41,3.24-8.66a20.46,20.46,0,0,1,33.51,8"></path></g><path d="M100.2,420.17c5.06-4.81,4.81-13.18,2.28-19.69s-8-11.52-14.19-14.81A45,45,0,0,0,49.1,384.4a18.61,18.61,0,0,1,15,8.83c2.78,4.61,3.39,10.2,5.68,15.07a23.74,23.74,0,0,0,30.38,11.87" style="fill:#407BFF"></path><path d="M102.63,391.27c5.61-6.62,6.36-17.24,5.53-25.87s-2.83-17.33-1.46-25.89c.8-5.08,2.77-9.92,3.44-15s-.28-10.85-4.23-14.14c-4.54-3.78-11.68-2.89-16.4.66s-7.46,9.12-9.46,14.68c-4.39,12.21-6,25.75-2.39,38.21s12.07,23.61,24.49,27.37" style="fill:#407BFF"></path><path d="M105.32,445.57a3.69,3.69,0,0,0,0-.76c0-.5,0-1.24,0-2.19-.07-1.9-.25-4.64-.68-8a105.11,105.11,0,0,0-2.15-11.73,53.77,53.77,0,0,0-5.36-13.59,56.15,56.15,0,0,0-8.75-11.7A55,55,0,0,0,79.19,390c-1.4-1-2.76-1.71-3.93-2.39S73,386.42,72.17,386l-2-.85a6.21,6.21,0,0,0-.71-.27,3.59,3.59,0,0,0,.68.35l2,.93c.84.44,1.87,1,3,1.62s2.48,1.45,3.86,2.43A57.67,57.67,0,0,1,96.71,409.5c5.15,9,6.57,18.5,7.59,25.15.46,3.35.7,6.09.82,8,.06.91.1,1.64.13,2.18A5.69,5.69,0,0,0,105.32,445.57Z" style="fill:#263238"></path><path d="M153.68,365.16c10.37,6.26,10.34,12,8.61,17.34s-8.1,9.11-13.38,7.1c-3-1.14-5.14-3.74-7-6.34s-3.58-5.4-6.17-7.27-6.33-2.59-8.93-.73" style="fill:#407BFF"></path><g style="opacity:0.5"><path d="M153.68,365.16c10.37,6.26,10.34,12,8.61,17.34s-8.1,9.11-13.38,7.1c-3-1.14-5.14-3.74-7-6.34s-3.58-5.4-6.17-7.27-6.33-2.59-8.93-.73"></path></g><path d="M161.45,372c-2.72-3.75-9.42-4.84-13.65-3s-7.33,5.58-10.1,9.28-5.47,7.61-9.32,10.19-9.21,3.51-13,.91a11.22,11.22,0,0,1-4.43-7.67,25.78,25.78,0,0,1,.61-9c.92-4.35,2.41-8.89,5.89-11.66,3.88-3.08,9.27-3.22,14.22-3.06,5.68.18,11.45.61,16.78,2.58s10.77,6.22,13,11.44" style="fill:#407BFF"></path><path d="M114,437.26s0-.07,0-.23,0-.39,0-.67c0-.62,0-1.48.09-2.57.06-2.27.16-5.5.27-9.47s.29-8.75.58-14,.68-11.08,1.48-17.12a56.16,56.16,0,0,1,1.72-8.69,44.88,44.88,0,0,1,3.18-7.6,43.63,43.63,0,0,1,4-6.3,40.92,40.92,0,0,1,4.38-4.81,32.2,32.2,0,0,1,7.76-5.29c.51-.23,1-.46,1.35-.62l1-.39.62-.25.21-.1-.22.05-.64.21-1,.35c-.41.15-.86.37-1.37.59a31,31,0,0,0-7.91,5.21,40.58,40.58,0,0,0-4.46,4.82,43.67,43.67,0,0,0-4.09,6.33,44.72,44.72,0,0,0-3.23,7.67,54.12,54.12,0,0,0-1.75,8.76c-.8,6.06-1.18,11.88-1.45,17.16s-.39,10-.48,14-.11,7.24-.12,9.48c0,1.09,0,1.95,0,2.57,0,.28,0,.5,0,.67A.6.6,0,0,0,114,437.26Z" style="fill:#263238"></path><path d="M110.21,442a30,30,0,0,0,1.14-4.46,46.41,46.41,0,0,0,.47-12.51,82.73,82.73,0,0,0-3.95-18.16c-2.13-6.67-5-13.81-7.49-21.48a98.77,98.77,0,0,1-3-11.36,101.93,101.93,0,0,1-1.48-10.85,160.81,160.81,0,0,1-.33-18.54c.18-5.29.46-9.56.64-12.51.08-1.45.15-2.59.2-3.4,0-.37,0-.66,0-.88a1.23,1.23,0,0,0,0-.31,1.77,1.77,0,0,0,0,.3c0,.23-.05.52-.08.88-.07.81-.17,1.95-.29,3.4-.23,2.95-.56,7.22-.78,12.51a153.27,153.27,0,0,0,.23,18.59A99.82,99.82,0,0,0,97,374.06a97.23,97.23,0,0,0,3,11.42c2.48,7.7,5.38,14.83,7.52,21.47a83.93,83.93,0,0,1,4,18.06,48.37,48.37,0,0,1-.33,12.45c-.25,1.46-.49,2.58-.69,3.33-.09.36-.16.64-.21.86A2.37,2.37,0,0,0,110.21,442Z" style="fill:#263238"></path><polygon points="84.5 446.64 133.2 446.64 134.31 437.26 84.5 437.26 84.5 446.64" style="fill:#455a64"></polygon><polygon points="127.97 445.57 121.89 473.69 95.42 473.69 89.72 445.57 127.97 445.57" style="fill:#455a64"></polygon><path d="M84.5,446.64c0,.12,10.71.2,23.91.16s23.92-.17,23.92-.3-10.71-.2-23.92-.16S84.5,446.51,84.5,446.64Z" style="fill:#455a64"></path><path d="M92.86,460.52a19.3,19.3,0,0,1,4.29-2.46,15.27,15.27,0,0,1,5.21-1.05,18.46,18.46,0,0,1,6.41,1.18c2.22.75,4.3,1.62,6.32,2.1a15,15,0,0,0,5.45.17,11.22,11.22,0,0,0,3.51-1.11,5.93,5.93,0,0,0,.84-.54c.19-.14.28-.21.27-.23s-.42.24-1.19.61a12.31,12.31,0,0,1-3.47.94,15.34,15.34,0,0,1-5.32-.25c-2-.49-4-1.37-6.26-2.13a18.23,18.23,0,0,0-6.57-1.17A15,15,0,0,0,97,457.76a13.35,13.35,0,0,0-3.17,1.85,6.85,6.85,0,0,0-.76.65C92.93,460.42,92.85,460.51,92.86,460.52Z" style="fill:#263238"></path><path d="M93.23,462.4A20.56,20.56,0,0,1,97.35,460a14,14,0,0,1,5-1,18.2,18.2,0,0,1,6.21,1.12c2.14.72,4.16,1.55,6.08,2.07a15.46,15.46,0,0,0,5.24.58,8.94,8.94,0,0,0,3.44-.91,6.39,6.39,0,0,0,.82-.52c.18-.14.26-.21.25-.23s-.4.24-1.15.58a9.39,9.39,0,0,1-3.38.76,16.11,16.11,0,0,1-5.11-.68c-1.88-.53-3.88-1.36-6-2.09a17.87,17.87,0,0,0-6.36-1.1,13.58,13.58,0,0,0-5.14,1.16,13.16,13.16,0,0,0-3,1.84c-.33.26-.57.48-.73.63S93.22,462.38,93.23,462.4Z" style="fill:#fff"></path><path d="M92.37,458.65a23.52,23.52,0,0,1,4.41-2.59,16.22,16.22,0,0,1,5.34-1.29,17.43,17.43,0,0,1,6.62,1.17,59.62,59.62,0,0,0,6.54,2.13,16.32,16.32,0,0,0,5.63,0,12.76,12.76,0,0,0,3.62-1.14,7.53,7.53,0,0,0,.88-.55c.19-.14.28-.22.27-.23s-.43.25-1.23.61a13.91,13.91,0,0,1-3.59,1,16.84,16.84,0,0,1-5.5-.11,66.94,66.94,0,0,1-6.47-2.15,17.13,17.13,0,0,0-6.79-1.15,16.46,16.46,0,0,0-8.7,3.36,7.17,7.17,0,0,0-.78.68C92.45,458.55,92.36,458.64,92.37,458.65Z" style="fill:#fff"></path><path d="M84.07,446.68c0,.13,11,.23,24.46.23s24.47-.1,24.47-.23-11-.24-24.47-.24S84.07,446.55,84.07,446.68Z" style="fill:#263238"></path></g><g id="freepik--Floor--inject-117"><path d="M470.36,473.69c0,.15-98.67.26-220.35.26s-220.37-.11-220.37-.26,98.65-.26,220.37-.26S470.36,473.55,470.36,473.69Z" style="fill:#263238"></path></g><g id="freepik--Sofa--inject-117"><rect x="432.42" y="428.08" width="11.63" height="45.35" transform="translate(876.46 901.52) rotate(180)" style="fill:#263238"></rect><rect x="257.82" y="428.08" width="11.63" height="45.35" transform="translate(527.26 901.52) rotate(180)" style="fill:#263238"></rect><path d="M233,319.57c2.61-4.52,28.27-18.09,28.27-18.09s4.72-22.12,17.26-26.28c6.12-2,145.15,2,145.15,2,5.65,3.41,9.52,24.28,9.52,24.28,10,2.52,33.49,16.17,34.79,21.83s1.57,109.23-.16,114.88c-8.12,3.39-16,3.84-23.74.78l-184.43-.81s-23.32,8.78-26.66-.48C231.43,433.47,230.34,324.08,233,319.57Z" style="fill:#407BFF"></path><path d="M259.61,397.85c0-.15,40.75-.26,91-.26s91,.11,91,.26-40.74.26-91,.26S259.61,398,259.61,397.85Z" style="fill:#263238"></path><path d="M453.86,437.22s0-.23,0-.69,0-1.15,0-2c0-1.82-.07-4.48-.12-7.94-.09-6.95-.22-17.09-.38-29.88s-.32-28.27-.53-45.87c0-2.19,0-4.44,0-6.7s.13-4.56,0-6.87a24.33,24.33,0,0,0-1.34-6.86,26.86,26.86,0,0,0-3.4-6.32,39.62,39.62,0,0,0-10.86-10.14,79.64,79.64,0,0,0-13.9-7.09l-.09,0,0-.09-4.16-10-2.12-5.09c-.36-.85-.71-1.7-1.07-2.56a10.7,10.7,0,0,0-1.3-2.4,9.82,9.82,0,0,0-6.94-4c-.92-.09-1.89-.11-2.83-.17l-11.52-.6c-15.51-.78-31.57-1.52-48-2.15q-12.49-.47-24.67-.78c-8.12-.18-16.11-.33-23.95-.19-2,0-3.91.09-5.85.2-1,0-1.93.14-2.88.23a12.79,12.79,0,0,0-2.78.54,11.46,11.46,0,0,0-4.59,3.15,24.48,24.48,0,0,0-3.31,4.53,54.17,54.17,0,0,0-4.38,10.21,86.17,86.17,0,0,0-2.68,10.54l0,.15-.15,0a30.26,30.26,0,0,0-7.17,3,51.68,51.68,0,0,0-6.39,4.24,28.73,28.73,0,0,0-5.34,5.22,10.83,10.83,0,0,0-1.66,3.22,18.81,18.81,0,0,0-.66,3.55c-.37,4.83.43,9.56.61,14.19.08,2.34,0,4.6-.05,6.86s0,4.46-.07,6.65c-.14,17.47,0,32.83.08,45.54s0,22.77,0,29.66c-.05,3.43-.09,6.07-.12,7.87,0,.89,0,1.56,0,2s0,.68,0,.68,0-.23,0-.68,0-1.14,0-2c0-1.8,0-4.44,0-7.88,0-6.88,0-16.94-.11-29.65s-.3-28.06-.19-45.54q0-3.29.06-6.66c0-2.24.12-4.54,0-6.83-.18-4.6-1-9.33-.63-14.24a19.3,19.3,0,0,1,.67-3.66,11.45,11.45,0,0,1,1.72-3.35,29.64,29.64,0,0,1,5.42-5.31,51.59,51.59,0,0,1,6.45-4.29,30.8,30.8,0,0,1,7.29-3.09l-.18.19a86.29,86.29,0,0,1,2.68-10.61,54.47,54.47,0,0,1,4.42-10.31,25.58,25.58,0,0,1,3.37-4.63,12,12,0,0,1,4.8-3.27,13,13,0,0,1,2.88-.57c1-.1,1.94-.19,2.91-.23,1.95-.12,3.91-.18,5.87-.21,7.86-.14,15.85,0,24,.19s16.35.46,24.68.77c16.46.63,32.52,1.38,48,2.16l11.52.61c1,.06,1.89.08,2.86.17a10,10,0,0,1,2.81.7,10.39,10.39,0,0,1,4.49,3.5,11.87,11.87,0,0,1,1.35,2.5c.36.86.71,1.71,1.07,2.56.7,1.71,1.41,3.4,2.11,5.09l4.15,10-.13-.13a81.35,81.35,0,0,1,14,7.15,40.35,40.35,0,0,1,11,10.27,27.52,27.52,0,0,1,3.44,6.43,25.32,25.32,0,0,1,1.36,7c.13,2.34.05,4.65,0,6.91s-.08,4.49,0,6.69c.16,17.59.31,33.06.42,45.86s.19,22.94.24,29.88c0,3.47,0,6.13.05,7.94v2C453.87,437,453.86,437.22,453.86,437.22Z" style="fill:#263238"></path><g style="opacity:0.4"><path d="M453.11,441.11c1.56-32.46.24-62.68,0-95.17-.1-11,1.32-19.24-11.24-29.48-6.9-5.62-18.34-10.55-18.34-10.55-3.26-4.59-3.73-12.67-6.8-17.39-4.58-7.06-14.46-7.74-22.88-7.68l-88.66.67c-7.05.05-14.87.41-19.88,5.37-4.65,4.61-5.4,11.77-5.67,18.32q-.53,12.42-.11,24.85c.14,4.08.51,8.54,3.32,11.5,2.33,2.46,5.82,3.6,9.2,3.92,25,2.31,97.73,1.88,129,1.88l22.75,21.41L444,439Z"></path></g><path d="M268,369.05c0-.15,38.59-.26,86.17-.26s86.17.11,86.17.26-38.57.26-86.17.26S268,369.19,268,369.05Z" style="fill:#263238"></path><path d="M259.61,438.16s0-.44,0-1.3,0-2.14,0-3.79c0-3.35,0-8.23-.05-14.47,0-12.51,0-30.45-.05-52.2v-.09l.06-.06,18.63-19.07.07-.07h.1l69.32,0,73.55,0h.09l.06.06c5.25,4.63,10.24,9.12,14.91,13.51,2.32,2.21,4.6,4.35,6.64,6.62.25.3.5.58.72.9a3.68,3.68,0,0,1,.32.51,1,1,0,0,1,.1.35v2.51c0,1.48,0,2.93,0,4.37,0,11.45,0,21.47,0,29.76V425c0,2.22,0,3.93,0,5.1,0,.57,0,1,0,1.31a3.72,3.72,0,0,1,0,.44s0-.15,0-.44,0-.74,0-1.31c0-1.17,0-2.88-.05-5.1,0-4.48-.08-11-.14-19.27s-.1-18.31-.16-29.76c0-1.44,0-2.89,0-4.37,0-.73,0-1.48,0-2.23v-.28a1.89,1.89,0,0,0-.06-.18,4.73,4.73,0,0,0-.29-.44c-.21-.3-.46-.58-.7-.87-2-2.24-4.3-4.38-6.62-6.57-4.67-4.38-9.68-8.86-14.92-13.48l.15.06-73.55,0-69.32,0,.17-.08c-6.63,6.76-12.92,13.18-18.67,19l.06-.14c-.05,21.75-.09,39.69-.12,52.2,0,6.24-.05,11.12-.07,14.47,0,1.65,0,2.92,0,3.79S259.61,438.16,259.61,438.16Z" style="fill:#263238"></path><path d="M423.62,307.9c.14,0-.29,8.84-1,19.74s-1.34,19.71-1.48,19.71.29-8.85,1-19.75S423.48,307.89,423.62,307.9Z" style="fill:#263238"></path><path d="M234.92,320.92a25.14,25.14,0,0,1,6.65.31,24.82,24.82,0,0,1,6.48,1.56c0,.14-2.93-.54-6.55-1.05S234.91,321.08,234.92,320.92Z" style="fill:#263238"></path><path d="M263.62,302.39a4.13,4.13,0,0,1,2.61.44,4,4,0,0,1,2.12,1.59,22.33,22.33,0,0,1-2.33-1.11A20.25,20.25,0,0,1,263.62,302.39Z" style="fill:#263238"></path><path d="M454.4,326.7a23.67,23.67,0,0,1,10.82-5c0,.15-2.54.9-5.52,2.3S454.49,326.83,454.4,326.7Z" style="fill:#263238"></path></g><g id="freepik--Character--inject-117"><path d="M251.53,320.87c2.1-3.8,5.79-6.41,9.35-8.9,6.06-4.22,12.46-8.58,19.81-9.41,7.7-.87,15.43,2.37,21.5,7.19,14.16,11.25,23.95,34,18.17,51.16-12.3,4.3-26.15,7.66-39.15,6.68-5.67-.42-11.53-1.45-16.16-4.76-5.73-4.09-8.65-11-11.3-17.48C250.56,337.48,247.42,328.29,251.53,320.87Z" style="fill:#f5f5f5"></path><path d="M279.69,363.89a1.78,1.78,0,0,1,.3-.35c.22-.22.53-.55,1-.93a30,30,0,0,1,3.9-3,45.81,45.81,0,0,1,14.93-6.1,91.36,91.36,0,0,1,16.05-1.93c2.06-.09,3.73-.14,4.89-.15h1.33a1.53,1.53,0,0,1,.47,0,12.07,12.07,0,0,1-1.79.17l-4.88.31a104.33,104.33,0,0,0-16,2.08,48.19,48.19,0,0,0-14.86,5.9,37.09,37.09,0,0,0-4,2.83A14.07,14.07,0,0,1,279.69,363.89Z" style="fill:#407BFF"></path><path d="M272.27,365.8a5.27,5.27,0,0,1,1.23-2.72,5.33,5.33,0,0,1,2.19-2,22.55,22.55,0,0,1-1.77,2.33A22.8,22.8,0,0,1,272.27,365.8Z" style="fill:#407BFF"></path><path d="M312.06,336.39a9.43,9.43,0,0,1,7.83-1.29c0,.16-1.81-.08-4,.29S312.13,336.54,312.06,336.39Z" style="fill:#407BFF"></path><path d="M265.71,351.55s.09-.14.3-.36l.93-1c.41-.42.92-.91,1.54-1.46s1.29-1.2,2.1-1.85a67.82,67.82,0,0,1,5.85-4.38,75.6,75.6,0,0,1,7.75-4.47,76.72,76.72,0,0,1,8.26-3.43,68.7,68.7,0,0,1,7-2c1-.25,1.94-.4,2.75-.55s1.52-.26,2.09-.33l1.33-.15a1.2,1.2,0,0,1,.47,0,2.14,2.14,0,0,1-.45.12l-1.31.25c-.58.1-1.27.23-2.07.42s-1.73.34-2.72.62c-2,.48-4.38,1.18-7,2.07a81.29,81.29,0,0,0-8.19,3.44,85,85,0,0,0-7.72,4.4c-2.27,1.51-4.27,3-5.87,4.27-.83.62-1.52,1.25-2.15,1.78s-1.16,1-1.59,1.39l-1,.88A1.92,1.92,0,0,1,265.71,351.55Z" style="fill:#407BFF"></path><path d="M255.85,350.21a6.47,6.47,0,0,1,2.33-3.12,6.38,6.38,0,0,1,3.62-1.42c.06.17-1.65.61-3.3,1.84S256,350.32,255.85,350.21Z" style="fill:#407BFF"></path><path d="M259.22,339.6a8.58,8.58,0,0,1,.87-1.27,16.49,16.49,0,0,1,1.13-1.42c.47-.54,1-1.17,1.61-1.8a42.67,42.67,0,0,1,4.63-4.21,44.19,44.19,0,0,1,13.48-7.22,42.51,42.51,0,0,1,6.08-1.53c.88-.18,1.68-.25,2.38-.34a17.85,17.85,0,0,1,1.81-.16,8,8,0,0,1,1.55,0,7.91,7.91,0,0,1-1.53.23c-.49.05-1.09.11-1.79.24s-1.49.21-2.35.41a46.84,46.84,0,0,0-6,1.62,51.61,51.61,0,0,0-7,3,50.22,50.22,0,0,0-6.38,4.12,46.71,46.71,0,0,0-4.67,4.09c-.65.61-1.16,1.22-1.65,1.73s-.87,1-1.19,1.36A9.58,9.58,0,0,1,259.22,339.6Z" style="fill:#407BFF"></path><path d="M250.6,337.65a7.7,7.7,0,0,1,5.58-4.33c.05.15-1.47.69-3,1.9S250.73,337.74,250.6,337.65Z" style="fill:#407BFF"></path><path d="M299.76,325.05a6.52,6.52,0,0,1,1.88-1.11A18.58,18.58,0,0,1,312,322.48a6.42,6.42,0,0,1,2.12.54,25.31,25.31,0,0,0-14.33,2Z" style="fill:#407BFF"></path><path d="M280.62,317.49a3.59,3.59,0,0,1,.77-.57c.51-.35,1.27-.81,2.24-1.34a39.37,39.37,0,0,1,8-3.2A38.8,38.8,0,0,1,300.1,311a23.15,23.15,0,0,1,2.61,0,3.21,3.21,0,0,1,1,.1c0,.08-1.36.09-3.53.28a46.15,46.15,0,0,0-16.33,4.55C281.83,316.87,280.67,317.57,280.62,317.49Z" style="fill:#407BFF"></path><path d="M253.24,325.34a10.89,10.89,0,0,1,2.07-1.93,26.86,26.86,0,0,1,5.89-3.49,27.22,27.22,0,0,1,6.57-1.88,10,10,0,0,1,2.82-.18,25.06,25.06,0,0,1-2.76.54,32,32,0,0,0-12.3,5.3A27.65,27.65,0,0,1,253.24,325.34Z" style="fill:#407BFF"></path><path d="M249.86,324.68c-.08-.12.5-.64,1.28-1.16s1.49-.86,1.57-.74-.5.65-1.28,1.17S249.94,324.8,249.86,324.68Z" style="fill:#407BFF"></path><path d="M253.47,318.67a8.46,8.46,0,0,1,1.25-.82c.82-.51,2-1.21,3.52-2.05,3-1.68,7.22-3.88,12-6.1s9.17-4,12.39-5.2c1.61-.61,2.92-1.07,3.84-1.37a6.92,6.92,0,0,1,1.43-.42,8.49,8.49,0,0,1-1.36.61l-3.78,1.52c-3.18,1.29-7.55,3.13-12.3,5.34s-9,4.35-12,5.95l-3.6,1.89A8,8,0,0,1,253.47,318.67Z" style="fill:#407BFF"></path><path d="M288.82,367.6a5,5,0,0,1,1.24-.28l3.4-.6c2.88-.5,6.84-1.23,11.2-2.15s8.27-1.87,11.1-2.57l3.35-.84a6.87,6.87,0,0,1,1.25-.25,6.47,6.47,0,0,1-1.19.44c-.78.26-1.91.6-3.32,1-2.81.8-6.72,1.81-11.09,2.73s-8.35,1.6-11.24,2c-1.45.2-2.62.35-3.43.43A7.09,7.09,0,0,1,288.82,367.6Z" style="fill:#263238"></path><path d="M252.29,319.22a2.18,2.18,0,0,1,.16.59l.35,1.71c.14.75.32,1.66.6,2.7s.52,2.24.95,3.53c.2.64.4,1.32.62,2s.51,1.42.77,2.17c.51,1.5,1.21,3.05,1.91,4.7a76.94,76.94,0,0,0,5.63,10.17,77.94,77.94,0,0,0,7.22,9.1c1.26,1.28,2.42,2.52,3.62,3.57.59.53,1.14,1.07,1.7,1.54l1.64,1.36c1,.88,2,1.57,2.89,2.22s1.63,1.18,2.26,1.59l1.45,1a3.43,3.43,0,0,1,.48.37,2.41,2.41,0,0,1-.54-.28l-1.5-.9c-.65-.39-1.44-.88-2.31-1.52s-1.92-1.3-3-2.18l-1.67-1.33c-.58-.47-1.13-1-1.73-1.54-1.22-1-2.4-2.28-3.67-3.55a67.59,67.59,0,0,1-13-19.4c-.69-1.67-1.38-3.23-1.87-4.76-.26-.76-.54-1.48-.75-2.19s-.41-1.4-.59-2c-.41-1.3-.64-2.51-.88-3.57s-.41-2-.52-2.72-.18-1.28-.25-1.73A4.61,4.61,0,0,1,252.29,319.22Z" style="fill:#263238"></path><path d="M262.5,355.31a9.76,9.76,0,0,1,2.63-5.45,14.42,14.42,0,0,1-1.28,2.74A14.93,14.93,0,0,1,262.5,355.31Z" style="fill:#263238"></path><path d="M261.4,351.76c-.12-.08.33-.94,1.18-1.75s1.71-1.23,1.79-1.11-.63.71-1.43,1.49S261.52,351.84,261.4,351.76Z" style="fill:#263238"></path><path d="M261,325.84a21.69,21.69,0,0,0-3.21,3,14,14,0,0,0-2,3.92,2.44,2.44,0,0,1,.1-1.34,7.91,7.91,0,0,1,1.43-2.9A7,7,0,0,1,261,325.84Z" style="fill:#263238"></path><path d="M258,323.38a30.06,30.06,0,0,1-1.23,3,25.87,25.87,0,0,1-1.12,3,6.54,6.54,0,0,1,.63-3.21A6.42,6.42,0,0,1,258,323.38Z" style="fill:#263238"></path><path d="M284.64,327.48a5.59,5.59,0,0,1,1.26-.27,12,12,0,0,1,1.49-.19,19.83,19.83,0,0,1,2-.1,22.64,22.64,0,0,1,2.42.07c.88,0,1.8.19,2.78.33a30,30,0,0,1,11.79,4.74c.8.57,1.57,1.1,2.23,1.68a21.43,21.43,0,0,1,1.81,1.63,19.51,19.51,0,0,1,1.37,1.46,11.15,11.15,0,0,1,.95,1.17,5.8,5.8,0,0,1,.72,1.07c-.08.06-1.15-1.43-3.3-3.44-.54-.49-1.13-1-1.82-1.55s-1.43-1.07-2.22-1.62a31.5,31.5,0,0,0-11.62-4.67c-.95-.15-1.86-.32-2.72-.37s-1.66-.12-2.4-.14C286.46,327.25,284.65,327.59,284.64,327.48Z" style="fill:#263238"></path><path d="M275.12,319a6.48,6.48,0,0,1,1.24-.28,11.41,11.41,0,0,1,1.47-.2,16.4,16.4,0,0,1,2-.12,19.69,19.69,0,0,1,2.4.05,25.54,25.54,0,0,1,2.73.3,32.44,32.44,0,0,1,6.08,1.66,31.86,31.86,0,0,1,5.59,2.93c.79.56,1.56,1.07,2.21,1.64a20.72,20.72,0,0,1,1.78,1.6A17.36,17.36,0,0,1,302,328a10.68,10.68,0,0,1,.94,1.15,6.2,6.2,0,0,1,.72,1c-.09.07-1.14-1.4-3.27-3.37-.53-.48-1.12-1-1.8-1.52s-1.42-1-2.21-1.58a30.81,30.81,0,0,0-11.48-4.52c-.94-.14-1.83-.3-2.68-.34a19.81,19.81,0,0,0-2.36-.11C276.91,318.76,275.13,319.11,275.12,319Z" style="fill:#263238"></path><path d="M278.08,291.23s34.31-32,40.77-39.68c4.28-5.1,12.48-7.22,17.51-8h0l17.81-2.86,37,3.33a.71.71,0,0,1,.37,0l.3,0,0,.1c5,2.29,30.33,28.53,30.33,28.53L429.63,253l17.55,3.87-6.8,40.86c-4.36,7.61-11,10.72-18.19,5.83l-24.8-19c-1,12.79-3.38,46.67-1.23,53.53,2.41,7.68-69.67-6.43-69.67-6.43l5.85-52.18-27.64,21.1-.41.51c5.32,6.93,10.18,14.13,11.69,21.5-2.74,4.62-8.32,6.36-15.73,6.25l-23.38-26.19Z" style="fill:#455a64"></path><path d="M395.15,310.69a1.68,1.68,0,0,1,0-.49c0-.38.05-.85.08-1.4.09-1.3.21-3,.36-5.15.35-4.42.82-10.38,1.34-17s.95-12.56,1.29-17c.14-2.11.25-3.85.34-5.15,0-.55.05-1,.07-1.4a1.65,1.65,0,0,1,.07-.48,2.25,2.25,0,0,1,0,.49c0,.38,0,.84,0,1.4,0,1.22-.07,3-.17,5.16-.21,4.36-.62,10.37-1.15,17s-1.06,12.62-1.48,17c-.22,2.11-.4,3.84-.53,5.13-.07.56-.13,1-.17,1.4A1.85,1.85,0,0,1,395.15,310.69Z" style="fill:#263238"></path><path d="M335.42,275.06c-.09-.05.79-1.3,1.69-3.55a20.69,20.69,0,0,0-1.29-18.16c-1.2-2.1-2.25-3.2-2.17-3.27a4.3,4.3,0,0,1,.76.75,16.48,16.48,0,0,1,1.73,2.34,19.82,19.82,0,0,1,1.31,18.49,17.62,17.62,0,0,1-1.38,2.55A4.07,4.07,0,0,1,335.42,275.06Z" style="fill:#263238"></path><path d="M286.92,291.27a2.23,2.23,0,0,1,.79-.25,9.62,9.62,0,0,1,2.24-.17,14.07,14.07,0,0,1,7,2.41,27.33,27.33,0,0,1,5.46,4.95,15.08,15.08,0,0,1,1.89,2.39,20,20,0,0,1-2.16-2.14,32.86,32.86,0,0,0-5.47-4.77,14.93,14.93,0,0,0-6.7-2.47A26.51,26.51,0,0,0,286.92,291.27Z" style="fill:#263238"></path><path d="M294.11,285.94a10,10,0,0,1,2.23,1.61,26.12,26.12,0,0,1,7.44,10.81,9.73,9.73,0,0,1,.7,2.65,26.08,26.08,0,0,1-1-2.51,31.31,31.31,0,0,0-7.35-10.68A25.51,25.51,0,0,1,294.11,285.94Z" style="fill:#263238"></path><path d="M426,292.81s-.24-.2-.6-.61a14.05,14.05,0,0,1-1.37-1.88,19.24,19.24,0,0,1-1.56-3.09,22.79,22.79,0,0,1-1.15-4.08,22.52,22.52,0,0,1-.29-4.23,19.75,19.75,0,0,1,.43-3.44,15,15,0,0,1,.66-2.23c.2-.51.32-.79.36-.77s-.33,1.17-.66,3.07a22.89,22.89,0,0,0,0,7.51,22.47,22.47,0,0,0,2.52,7.07C425.29,291.81,426.06,292.75,426,292.81Z" style="fill:#263238"></path><path d="M429.5,231.38l5.35-2.16-.53,3.83-2.26,1.75,1.77,1.82-.92,6.67-4.06-5.13a3.46,3.46,0,0,1-.55-3.28Z" style="fill:#ffbe9d"></path><polygon points="450.93 243.33 444.42 256.29 432.2 253.6 432.2 238.15 450.3 235.05 450.93 243.33" style="fill:#ffbe9d"></polygon><path d="M432.89,230.67l1.29-9.34a1.43,1.43,0,0,1,1-1.17l14.65-4.91a1.44,1.44,0,0,1,1.88,1.63l-6,32.25a1.45,1.45,0,0,1-1.13,1.16l-13,2.71a1.45,1.45,0,0,1-1.73-1.63Z" style="fill:#263238"></path><path d="M443.17,225.7a1.07,1.07,0,1,1-.32-1.48A1.08,1.08,0,0,1,443.17,225.7Z" style="fill:#ebebeb"></path><path d="M451.07,220.17s2.19,0,2,3.1a24.25,24.25,0,0,1-2,8.19,2.61,2.61,0,0,1,0,2.7s1.62-.12,1.53,2.71a3,3,0,0,1-.52,4.32s1.46,1.89-.9,3.82a6.7,6.7,0,0,1-5.56,1Z" style="fill:#ffbe9d"></path><path d="M450,231.6c-1.74,1.16-3.7,2.27-5.25,3.54-.51.41-1.08.62-1.3,1.24a1.39,1.39,0,0,0,.53,1.71,2,2,0,0,0,1.67-.2,29.36,29.36,0,0,0,5.38-3.63" style="fill:#ffbe9d"></path><path d="M450.3,235.05c-1.74,1.16-3.71,2.27-5.25,3.54-.51.41-1.08.62-1.31,1.24a1.4,1.4,0,0,0,.54,1.71,2,2,0,0,0,1.66-.2,29,29,0,0,0,5.38-3.63" style="fill:#ffbe9d"></path><path d="M450.31,238.7c-1.74,1.16-3.71,2.27-5.25,3.54-.51.41-1.08.62-1.3,1.24a1.38,1.38,0,0,0,.53,1.71A2,2,0,0,0,446,245a29.43,29.43,0,0,0,5.39-3.63" style="fill:#ffbe9d"></path><path d="M450.92,234.36c-.05-.07-1.25.86-2.78,1.9s-2.84,1.8-2.8,1.88a17.66,17.66,0,0,0,5.58-3.78Z" style="fill:#eb996e"></path><path d="M452.22,237.06c-.05-.07-1.43,1-3.16,2.17s-3.18,2.14-3.14,2.22a16.74,16.74,0,0,0,3.32-2A17.16,17.16,0,0,0,452.22,237.06Z" style="fill:#eb996e"></path><path d="M452.18,241.1a20.57,20.57,0,0,0-3.06,1.77,19.52,19.52,0,0,0-2.9,2,20.36,20.36,0,0,0,3.07-1.77A19.08,19.08,0,0,0,452.18,241.1Z" style="fill:#eb996e"></path><path d="M451.45,230.68c-.06-.07-1.56,1.07-3.51,2.33s-3.6,2.18-3.55,2.26a4.48,4.48,0,0,0,1.14-.49,29.87,29.87,0,0,0,2.58-1.51,29.51,29.51,0,0,0,2.43-1.75A4.51,4.51,0,0,0,451.45,230.68Z" style="fill:#eb996e"></path><path d="M327.21,445.18l-1.52,19.65s-25.26,5.71-26.12,10.12l46.52,6.2,4.5-34.73Z" style="fill:#455a64"></path><g style="opacity:0.6000000000000001"><path d="M340.34,464.73a1.91,1.91,0,0,1,1,2.34,1.84,1.84,0,0,1-2.31,1,2,2,0,0,1-1.07-2.49,1.91,1.91,0,0,1,2.53-.81" style="fill:#fff"></path></g><g style="opacity:0.6000000000000001"><path d="M346.09,481.15l.37-3.79-44.74-4.53s-2.19.63-2.15,2.12Z" style="fill:#fff"></path></g><path d="M325,464.49c0,.23,1.1.48,2.12,1.36s1.49,1.92,1.71,1.85.06-1.42-1.19-2.46S324.94,464.27,325,464.49Z" style="fill:#263238"></path><path d="M319.82,465.86c-.09.21.85.73,1.49,1.79s.73,2.11,1,2.13.54-1.24-.28-2.55S319.85,465.64,319.82,465.86Z" style="fill:#263238"></path><path d="M316.27,471.33c.2.07.66-1,.25-2.34s-1.42-2-1.54-1.78.45.93.77,2S316,471.28,316.27,471.33Z" style="fill:#263238"></path><path d="M326.1,459.06c.07.22,1.16.05,2.43.31s2.22.79,2.36.61-.71-1.11-2.21-1.4S326,458.87,326.1,459.06Z" style="fill:#263238"></path><path d="M326.66,454.21a4.31,4.31,0,0,0,2.34.3,10.73,10.73,0,0,0,2.53-.42,13.36,13.36,0,0,0,1.44-.53,2.94,2.94,0,0,0,.77-.46,1,1,0,0,0,.27-1.19,1.24,1.24,0,0,0-.93-.65,2.94,2.94,0,0,0-.89,0,8.78,8.78,0,0,0-1.51.3,8.1,8.1,0,0,0-2.34,1.13c-1.21.85-1.69,1.65-1.62,1.71s.71-.56,1.92-1.23a9.49,9.49,0,0,1,2.23-.9,8.7,8.7,0,0,1,1.4-.23c.51-.07.93,0,1,.22s0,.13-.08.26a2.87,2.87,0,0,1-.57.33,14.29,14.29,0,0,1-1.33.54,13.53,13.53,0,0,1-2.37.56A16.69,16.69,0,0,0,326.66,454.21Z" style="fill:#263238"></path><path d="M326.92,454.58a3.85,3.85,0,0,0,.91-2.17,7.43,7.43,0,0,0,0-2.59,8,8,0,0,0-.4-1.5,1.94,1.94,0,0,0-1.33-1.37,1.09,1.09,0,0,0-1.06.52,3,3,0,0,0-.35.82,5.11,5.11,0,0,0-.21,1.57,5.4,5.4,0,0,0,.67,2.54c.75,1.33,1.66,1.72,1.69,1.65a18.84,18.84,0,0,1-1.18-1.9,5.31,5.31,0,0,1-.45-2.29,4.94,4.94,0,0,1,.22-1.34c.14-.48.38-.86.56-.78s.57.45.71.87a7.08,7.08,0,0,1,.41,1.34,8.32,8.32,0,0,1,.14,2.38C327.15,453.71,326.8,454.53,326.92,454.58Z" style="fill:#263238"></path><polygon points="350.59 446.42 352.83 431.17 327.95 429.96 327.21 445.18 350.59 446.42" style="fill:#ffbe9d"></polygon><path d="M396.53,394.53l7.89,18.06s25.73-2.89,28,1l-41.91,21.13-15.66-31.34Z" style="fill:#455a64"></path><g style="opacity:0.6000000000000001"><path d="M390.55,417.31a1.92,1.92,0,0,0-.2,2.55,1.85,1.85,0,0,0,2.52.22,2,2,0,0,0,.2-2.7,1.9,1.9,0,0,0-2.65.06" style="fill:#fff"></path></g><g style="opacity:0.6000000000000001"><path d="M390.51,434.71l-1.6-3.46,40.78-19s2.27-.13,2.73,1.29Z" style="fill:#fff"></path></g><path d="M405,412c.1.2-.88.81-1.55,2s-.78,2.29-1,2.31-.52-1.32.32-2.72S404.94,411.83,405,412Z" style="fill:#263238"></path><path d="M410.3,411.64c.15.17-.56,1-.82,2.18s0,2.24-.21,2.33-.92-1-.57-2.5S410.2,411.44,410.3,411.64Z" style="fill:#263238"></path><path d="M415.45,415.64c-.16.14-1-.74-1-2.13s.69-2.31.86-2.18-.11,1-.06,2.16S415.65,415.52,415.45,415.64Z" style="fill:#263238"></path><path d="M402.13,407.28c0,.23-1.07.42-2.19,1.08s-1.83,1.49-2,1.36.31-1.28,1.63-2.05S402.15,407.07,402.13,407.28Z" style="fill:#263238"></path><path d="M400,402.89a4.44,4.44,0,0,1-2.1,1,10.36,10.36,0,0,1-2.54.44,11.38,11.38,0,0,1-1.53,0,2.65,2.65,0,0,1-.88-.17,1,1,0,0,1-.64-1,1.25,1.25,0,0,1,.66-.92,2.9,2.9,0,0,1,.84-.29,8.5,8.5,0,0,1,1.53-.21,8.34,8.34,0,0,1,2.58.29c1.42.42,2.14,1,2.09,1.09s-.85-.29-2.22-.54a9.62,9.62,0,0,0-2.4-.11,8.8,8.8,0,0,0-1.39.24c-.51.11-.89.29-.9.55,0,.1,0,.13.16.21a2.56,2.56,0,0,0,.65.13,14.1,14.1,0,0,0,1.43.07,12.94,12.94,0,0,0,2.42-.24A15.09,15.09,0,0,1,400,402.89Z" style="fill:#263238"></path><path d="M399.89,403.31c-.05.07-.83-.46-1.57-1.74a7.56,7.56,0,0,1-.87-2.45,7,7,0,0,1-.11-1.54,1.93,1.93,0,0,1,.8-1.74,1.1,1.1,0,0,1,1.17.15,2.84,2.84,0,0,1,.61.66,5.43,5.43,0,0,1,.91,4c-.27,1.5-1,2.18-1.06,2.12a18.77,18.77,0,0,0,.5-2.19,5.41,5.41,0,0,0-.33-2.3,5.2,5.2,0,0,0-.65-1.2c-.29-.41-.64-.68-.78-.56a1.36,1.36,0,0,0-.39,1.06,8,8,0,0,0,.05,1.4,8.48,8.48,0,0,0,.65,2.3C399.38,402.57,400,403.23,399.89,403.31Z" style="fill:#263238"></path><polygon points="374.85 403.38 367.73 389.71 390.84 380.4 396.53 394.53 374.85 403.38" style="fill:#ffbe9d"></polygon><path d="M325.18,370.85s-9.44-1.75-11.09-5.05,6.75-40,16.82-61.46c11-23.55,34-16.47,39.49-8.18,9.65,14.53,24.73,86.8,24.73,86.8l-26.71,10-27.35-65.5s-5.2-2.89-9.89.66S325.18,370.85,325.18,370.85Z" style="fill:#263238"></path><path d="M358.21,432.61c-1-.33-35.27,0-35.27,0L325,369.05l2-43.3L352,319.57l29.8,7.85s19.64,7.31,20.62,19.17a128.06,128.06,0,0,1,0,21.42,74.52,74.52,0,0,1-32.3,5.61L363.55,371Z" style="fill:#263238"></path><path d="M381.75,327.42a2.41,2.41,0,0,1,.19.55c.11.42.26.94.44,1.59.37,1.45.88,3.44,1.51,5.87,1.25,5,2.89,11.86,4.68,19.46s3.46,14.49,4.68,19.46c.6,2.44,1.08,4.43,1.44,5.89.15.65.27,1.19.37,1.61a2.05,2.05,0,0,1,.09.57,3.31,3.31,0,0,1-.19-.54c-.13-.42-.28-.94-.47-1.59-.39-1.37-.93-3.37-1.59-5.85-1.32-4.95-3-11.82-4.84-19.43s-3.36-14.44-4.53-19.49c-.56-2.44-1-4.45-1.35-5.91l-.34-1.62A2,2,0,0,1,381.75,327.42Z" style="fill:#455a64"></path><path d="M325,395.73a1.65,1.65,0,0,1,0-.39q0-.43,0-1.17c0-1.06,0-2.57,0-4.5,0-3.9,0-9.54.06-16.52s.2-15.29.54-24.51c.21-4.61.39-9.45,1-14.46a19.11,19.11,0,0,1,2.2-7.38,7.14,7.14,0,0,1,2.89-2.77,6.26,6.26,0,0,1,4-.48,8.93,8.93,0,0,1,3.66,1.74,12.07,12.07,0,0,1,2.62,3,47.19,47.19,0,0,1,3.28,7l5.55,13.37c3.53,8.51,6.71,16.19,9.38,22.64l6.28,15.28c.72,1.79,1.29,3.19,1.68,4.17l.43,1.09a2.62,2.62,0,0,1,.13.37,1.51,1.51,0,0,1-.18-.35l-.47-1.07c-.42-1-1-2.36-1.78-4.13L359.8,371.4c-2.7-6.44-5.91-14.1-9.48-22.6q-2.67-6.39-5.58-13.36a47.75,47.75,0,0,0-3.24-6.87A11.52,11.52,0,0,0,339,325.7a8.17,8.17,0,0,0-3.44-1.63,5.67,5.67,0,0,0-3.7.42,6.72,6.72,0,0,0-2.68,2.58,18.77,18.77,0,0,0-2.14,7.19c-.62,4.95-.8,9.8-1,14.4-.37,9.21-.53,17.52-.65,24.49s-.18,12.59-.23,16.52c0,1.93-.05,3.44-.06,4.5,0,.49,0,.88,0,1.17A1.93,1.93,0,0,1,325,395.73Z" style="fill:#455a64"></path><path d="M390.91,184.32c-3.67-1.41-7.82,1.66-11.61.63-2.3-.63-3.93-2.63-5.92-3.94a12,12,0,0,0-10.65-1.18c-3.29,1.39-5.46,3-6.14,6.46-2.77-1.87-7.85,1.42-9.75,4.81s-1.75,7-1.09,10.87a51.29,51.29,0,0,0,7.15,18.6c.32.5.84,1.07,1.39.85.38-.14.54-.59.63-1,.8-3.4.62-6.94.58-10.43s.06-7.08,1.4-10.3,4.14-6.06,7.6-6.48a11,11,0,0,1,7.27,2.11c2.15,1.43,4,3.25,6,4.84a14.29,14.29,0,0,0,6.91,3.27c2.56.3,5.4-.71,6.67-3s.27-5.65-2.21-6.36a5.07,5.07,0,0,0,1.74-9.8Z" style="fill:#263238"></path><path d="M351.08,203.42l.9,39.13c.16,6.66,6.7,12.28,13.34,11.8h0c6.2-.45,10.1-6.15,9.95-12.36-.08-2.94-.13-5.4-.12-5.7,0,0,9.94-1.17,10.44-11,.23-4.77-.08-14.64-.46-23.57a18.44,18.44,0,0,0-17.73-17.6l-.95,0C356.15,184.25,350.58,193.12,351.08,203.42Z" style="fill:#ffbe9d"></path><path d="M375.18,236.15A23,23,0,0,1,362.43,232s2.78,7.23,12.67,6.71Z" style="fill:#eb996e"></path><path d="M382.1,209.08a1.42,1.42,0,0,1-1.42,1.38,1.36,1.36,0,0,1-1.4-1.33,1.42,1.42,0,0,1,1.41-1.38A1.36,1.36,0,0,1,382.1,209.08Z" style="fill:#263238"></path><path d="M382.82,206.44c-.18.18-1.22-.65-2.74-.7s-2.66.66-2.82.47.12-.41.61-.75a3.93,3.93,0,0,1,2.27-.6,3.74,3.74,0,0,1,2.17.79C382.77,206,382.91,206.37,382.82,206.44Z" style="fill:#263238"></path><path d="M367.62,209.08a1.42,1.42,0,0,1-1.41,1.38,1.36,1.36,0,0,1-1.41-1.33,1.42,1.42,0,0,1,1.42-1.38A1.35,1.35,0,0,1,367.62,209.08Z" style="fill:#263238"></path><path d="M367.88,206.17c-.18.18-1.22-.65-2.74-.71s-2.66.67-2.81.48.11-.41.61-.75a4,4,0,0,1,2.26-.61,3.71,3.71,0,0,1,2.17.8C367.83,205.75,368,206.09,367.88,206.17Z" style="fill:#263238"></path><path d="M373,217.64a9.82,9.82,0,0,1,2.49-.36c.39,0,.76-.08.83-.35a2,2,0,0,0-.21-1.16l-1-3c-1.44-4.26-2.46-7.76-2.29-7.82s1.48,3.35,2.91,7.62c.35,1,.68,2,1,3a2.24,2.24,0,0,1,.15,1.53,1,1,0,0,1-.66.54,2.78,2.78,0,0,1-.67.07A10.69,10.69,0,0,1,373,217.64Z" style="fill:#263238"></path><path d="M368.47,218.52c.24,0,.19,1.64,1.55,2.87s3.13,1.1,3.14,1.33-.41.31-1.15.3a4.08,4.08,0,0,1-2.62-1,3.59,3.59,0,0,1-1.2-2.4C368.16,218.91,368.35,218.51,368.47,218.52Z" style="fill:#263238"></path><path d="M368.5,200.23c-.17.41-1.68.16-3.46.31s-3.25.58-3.48.2c-.09-.18.17-.56.77-.94a6,6,0,0,1,5.28-.38C368.25,199.7,368.57,200,368.5,200.23Z" style="fill:#263238"></path><path d="M382.43,202c-.28.33-1.32-.06-2.57-.13s-2.33.15-2.57-.22c-.1-.18.08-.52.56-.83a3.73,3.73,0,0,1,4.14.28C382.42,201.5,382.55,201.86,382.43,202Z" style="fill:#263238"></path><path d="M351.61,210.76c-.16-.07-6.71-2.26-6.75,4.51s6.76,5.4,6.77,5.21S351.61,210.76,351.61,210.76Z" style="fill:#ffbe9d"></path><path d="M349.58,217.9s-.12.09-.32.18a1.23,1.23,0,0,1-.88,0,2.9,2.9,0,0,1-1.33-2.62,3.84,3.84,0,0,1,.34-1.69,1.37,1.37,0,0,1,.89-.9.6.6,0,0,1,.69.33c.09.19,0,.32.08.33s.15-.11.1-.39a.77.77,0,0,0-.27-.42.88.88,0,0,0-.65-.18,1.64,1.64,0,0,0-1.23,1,3.87,3.87,0,0,0-.42,1.89,3,3,0,0,0,1.7,2.93,1.28,1.28,0,0,0,1.08-.18C349.57,218.07,349.61,217.92,349.58,217.9Z" style="fill:#eb996e"></path><path d="M387.29,199.7a14.28,14.28,0,0,1-12.57-3.33c-2.32-2.13-4.07-5.13-7.05-6.17a8.07,8.07,0,0,0-6.17.61,15.54,15.54,0,0,0-4.81,4.11c1.72,5.09.23,10.65-1.26,15.81a2.74,2.74,0,0,1-.85,1.53c-.82.59-2,.06-2.67-.69a8.42,8.42,0,0,1-1.67-4.48,27.85,27.85,0,0,1,.48-11,19,19,0,0,1,5.55-9.36A18,18,0,0,1,369,182.5a22.08,22.08,0,0,1,12.6,5,13,13,0,0,1,4,4.94" style="fill:#263238"></path><path d="M393.65,186.81a1.29,1.29,0,0,1-.08.58,2.77,2.77,0,0,1-1,1.36,4.32,4.32,0,0,1-2.56.75,7,7,0,0,1-1.67-.17,3.53,3.53,0,0,1-1.7-.86,2.39,2.39,0,0,1-.77-1.94,2.11,2.11,0,0,1,1.5-1.67,2.63,2.63,0,0,1,1.22-.11,2.17,2.17,0,0,1,1.14.57,3.09,3.09,0,0,1,.92,2.4,3.57,3.57,0,0,1-1.16,2.44,5.45,5.45,0,0,1-2.5,1.29,8.85,8.85,0,0,1-5.75-.84,25.24,25.24,0,0,1-4.88-3.2,32.51,32.51,0,0,0-4.42-3.06,10.12,10.12,0,0,0-4.6-1.3,9.45,9.45,0,0,0-4.08.89,12,12,0,0,0-4.64,3.9,13.89,13.89,0,0,0-.91,1.41,5.63,5.63,0,0,1-.3.5s0-.05.05-.14.1-.23.19-.4a13,13,0,0,1,.87-1.44,11.8,11.8,0,0,1,4.64-4.05,9.71,9.71,0,0,1,4.18-.95,10.24,10.24,0,0,1,4.74,1.31,32.44,32.44,0,0,1,4.48,3.07,26,26,0,0,0,4.83,3.16,8.62,8.62,0,0,0,5.53.82,5,5,0,0,0,2.35-1.21,3.22,3.22,0,0,0,1.07-2.22,2.77,2.77,0,0,0-.81-2.17,2,2,0,0,0-2.07-.4,1.81,1.81,0,0,0-1.33,1.43,2.14,2.14,0,0,0,.68,1.74,3.41,3.41,0,0,0,1.58.83,7.18,7.18,0,0,0,1.62.18,4.22,4.22,0,0,0,2.48-.66,2.78,2.78,0,0,0,1-1.28A3.94,3.94,0,0,0,393.65,186.81Z" style="fill:#455a64"></path><path d="M345.42,196.87a11.42,11.42,0,0,0,2,.61,5.89,5.89,0,0,0,2.28-.15,9.85,9.85,0,0,0,2.57-1.12,7.82,7.82,0,0,0,3.16-3.91,15.4,15.4,0,0,0,.53-2.08,1.71,1.71,0,0,1,0,.59,6.81,6.81,0,0,1-.32,1.56,7.67,7.67,0,0,1-3.21,4.12,9.2,9.2,0,0,1-2.68,1.14,5.73,5.73,0,0,1-2.38.09,5.24,5.24,0,0,1-1.52-.53A1.71,1.71,0,0,1,345.42,196.87Z" style="fill:#455a64"></path><path d="M345.53,201.77c0-.06.8.14,2.07.12a9.58,9.58,0,0,0,4.72-1.35,9.44,9.44,0,0,0,3.36-3.57c.61-1.12.79-1.91.85-1.89a1.83,1.83,0,0,1-.1.56,7.52,7.52,0,0,1-.54,1.44,9,9,0,0,1-3.4,3.74,9.16,9.16,0,0,1-4.89,1.31,7.41,7.41,0,0,1-1.53-.19A1.76,1.76,0,0,1,345.53,201.77Z" style="fill:#455a64"></path><path d="M362.6,212.44a.19.19,0,0,1-.2-.16.17.17,0,0,1,.14-.2.16.16,0,0,1,.19.15A.18.18,0,0,1,362.6,212.44Z" style="fill:#eb996e"></path><path d="M365.52,211.89a.2.2,0,0,1-.2-.18.21.21,0,0,1,.14-.24.22.22,0,0,1,.06.42Z" style="fill:#eb996e"></path><path d="M367.48,211.91c-.09,0-.18-.11-.19-.26s0-.28.14-.28.18.1.19.25S367.57,211.9,367.48,211.91Z" style="fill:#eb996e"></path><path d="M364,214.31c-.1,0-.17-.05-.17-.11s.08-.11.17-.1.17.05.17.11S364.05,214.32,364,214.31Z" style="fill:#eb996e"></path><path d="M366.64,213.79a.18.18,0,0,1-.18-.18.17.17,0,1,1,.34,0A.18.18,0,0,1,366.64,213.79Z" style="fill:#eb996e"></path><path d="M380.55,212.66a.19.19,0,0,1-.2-.16.2.2,0,0,1,.14-.22.18.18,0,0,1,.19.16A.18.18,0,0,1,380.55,212.66Z" style="fill:#eb996e"></path><path d="M382.53,212.55c-.09,0-.17-.08-.18-.2s.07-.22.16-.22.17.08.18.2S382.63,212.55,382.53,212.55Z" style="fill:#eb996e"></path><path d="M378.8,212.64a.15.15,0,1,1-.05-.29.16.16,0,0,1,.19.12A.15.15,0,0,1,378.8,212.64Z" style="fill:#eb996e"></path><path d="M380.19,214.67a.17.17,0,0,1-.22-.11.17.17,0,1,1,.31-.13A.18.18,0,0,1,380.19,214.67Z" style="fill:#eb996e"></path><path d="M381.89,214.4a.16.16,0,0,1-.11-.19.15.15,0,0,1,.2-.08.16.16,0,0,1,.12.19A.17.17,0,0,1,381.89,214.4Z" style="fill:#eb996e"></path><path d="M346.81,219.64a3.88,3.88,0,0,0-.24,1.52,2.24,2.24,0,0,0,.68,1.45,2,2,0,0,0,1.8.54,1.87,1.87,0,0,0,1.37-1.26,2.44,2.44,0,0,0-.22-1.58,3.16,3.16,0,0,0-.95-1.22c0-.06.68.18,1.16,1.11a2.56,2.56,0,0,1,.31,1.77,2.16,2.16,0,0,1-1.59,1.51,2.27,2.27,0,0,1-2.09-.65,2.38,2.38,0,0,1-.71-1.65,2.7,2.7,0,0,1,.23-1.18C346.69,219.75,346.79,219.63,346.81,219.64Z" style="fill:#263238"></path><path d="M346.87,218.49s.25.1.36.48a1,1,0,0,1-.06.68,1,1,0,0,1-.66.54.93.93,0,0,1-.83-.23.74.74,0,0,1-.22-.67c.07-.41.36-.51.36-.47s-.13.19-.13.49a.53.53,0,0,0,.2.42.66.66,0,0,0,.55.14.77.77,0,0,0,.46-.36.92.92,0,0,0,.1-.5C347,218.7,346.83,218.53,346.87,218.49Z" style="fill:#263238"></path><path d="M319.41,331c-1.8-3.78-7.73-12.35-7.73-12.35-5.69-.29-7.6,1.46-9.93,4.76,0,0,.6,11.15.6,11.42S304.41,346,304.41,346a2.58,2.58,0,0,0,1.86,1.73c1.52.4-.37-9.16-.37-9.16l2.39,6.48-.05.47s.08,5,.75,6.06a1.9,1.9,0,0,0,1.92,1.06c.32,0,.39-3.87.6-7.37l-.93-5.64,2.26,5.38s-.33,5.85.3,7.19,2.64,1.36,2.64.62.09-3.32.19-5.66a45.29,45.29,0,0,0-.63-6.73l1.73,5.49.68,5.06c.4.26,1.7.89,2.06.07a37.92,37.92,0,0,0,.46-4.92c-.07-1.46-.66-5.57-.66-5.57a5.8,5.8,0,0,0,3.05,2.22c1.86.42,2.13-.36,2.13-.36Z" style="fill:#ffbe9d"></path><path d="M318.46,335.73a23.36,23.36,0,0,1,1.42,5.34,23.73,23.73,0,0,1,.63,5.48,39.15,39.15,0,0,1-1.15-5.39A40.06,40.06,0,0,1,318.46,335.73Z" style="fill:#eb996e"></path><path d="M316,322.58a3.5,3.5,0,0,1-.6-.71,11.8,11.8,0,0,0-1.66-1.82,5.24,5.24,0,0,0-3.26-1.31,7.75,7.75,0,0,0-4.21,1.08,14.09,14.09,0,0,0-5.7,5.64,9.06,9.06,0,0,0-.75,3.27,2.09,2.09,0,0,1-.12-.92,6.54,6.54,0,0,1,.54-2.49,13.61,13.61,0,0,1,5.77-6,8.06,8.06,0,0,1,4.5-1.1,5.53,5.53,0,0,1,3.48,1.51,10,10,0,0,1,1.58,2A2.86,2.86,0,0,1,316,322.58Z" style="fill:#263238"></path></g></svg>