<svg xmlns="http://www.w3.org/2000/svg" viewBox="0 0 500 500"><g id="freepik--background-simple--inject-228"><path d="M470.92,280.06c-14.72,39.43-44.8,82.11-87.13,94.74-64,19.1-71.6,70.66-186.16,65.88a231.35,231.35,0,0,1-49.54-7.27,190.34,190.34,0,0,1-23.29-7.75C57.87,398.56,23,338.9,20.06,276.47c-3.83-82.1,53.46-121.23,90.69-144.15s82.1-111.7,194.76-107.88a223.57,223.57,0,0,1,50.92,7.43c37.91,10.26,76.44,33,98.83,66.13q2.52,3.73,4.82,7.64C490.05,156.48,491,226.3,470.92,280.06Z" style="fill:#407BFF"></path><path d="M470.92,280.06c-14.72,39.43-44.8,82.11-87.13,94.74-64,19.1-71.6,70.66-186.16,65.88a231.35,231.35,0,0,1-49.54-7.27,190.34,190.34,0,0,1-23.29-7.75C57.87,398.56,23,338.9,20.06,276.47c-3.83-82.1,53.46-121.23,90.69-144.15s82.1-111.7,194.76-107.88a223.57,223.57,0,0,1,50.92,7.43c37.91,10.26,76.44,33,98.83,66.13q2.52,3.73,4.82,7.64C490.05,156.48,491,226.3,470.92,280.06Z" style="fill:#fff;opacity:0.7000000000000001"></path></g><g id="freepik--Characters--inject-228"><path d="M349.33,179.57s.31-11.29,6.82-14.49,6.88,7.37,6.88,7.37,14.89-9.46,18.12-2.29-1.28,10.64-1.28,10.64,13.22-.46,14.14,6.79-5.91,10.8-5.91,10.8,8.17,6.67,5.3,9.75-9.15,3.3-9.15,3.3,3.56,7.15-2.65,9.69-13.31-2.19-13.31-2.19,1.1,3.28-3.56,2.45-9.37-3-12.26-9.84S345.85,185.34,349.33,179.57Z" style="fill:#263238;stroke:#263238;stroke-linecap:round;stroke-linejoin:round"></path><path d="M280.59,397.62s-3.71,14.16-3.65,15.73-1.23,5.13-.14,6.14a52.33,52.33,0,0,0,6.47,4.51,4.89,4.89,0,0,0,2.6-.79,2.44,2.44,0,0,0,.81-1.78c0-.53-1.49-2.75-1.69-3.27s2.73-7.29,3.84-10.66a60,60,0,0,0,1.78-9.18Z" style="fill:#bdbdbd;stroke:#263238;stroke-miterlimit:10"></path><path d="M284.62,407.48s-2.11,5-2.25,5.86-3,3.26-2.62,5.18,4.6,1.41,6.68-4.27" style="fill:#bdbdbd;stroke:#263238;stroke-miterlimit:10"></path><path d="M294.07,320.7s-1.77,28.88-2.44,31.43-8.71,25.84-10.48,33a97.16,97.16,0,0,0-2.31,13.48l10.79,2.27,6.06-26.62S303.61,350,302,338.63A34,34,0,0,0,294.07,320.7Z" style="fill:#407BFF;stroke:#263238;stroke-miterlimit:10"></path><path d="M350.28,457.13c.13-6.28.39-14.75,1-19.6,1-8.38,4.58-13.56,8.26-24s4-24.16,4-24.16l-65.9,2.3S290,420,285.37,440.84a84.59,84.59,0,0,0-2.19,16.29" style="fill:#407BFF;stroke:#263238;stroke-miterlimit:10"></path><polygon points="306.27 402.29 361.1 403.83 362.26 399.59 306.27 402.29" style="fill:#263238;stroke:#263238;stroke-linecap:round;stroke-linejoin:round"></polygon><path d="M303.5,456.13s-1.08-34.29-1.11-52.9" style="fill:#fff;stroke:#263238;stroke-miterlimit:10"></path><path d="M345.53,248.16l8,5.38S363,262,365.33,269s.64,48.57-1.71,62,3.52,30.16,5.61,39.6,3,27,3,27,1.48,2.06-24.2,2.95-43.59,2.23-45.69,2.65a25.69,25.69,0,0,1-3.85.49l-1-9.12L295,402.08l-5.33-1.22s3.31-16.32,4.14-22.68,6.07-28,6.14-36.14-6.73-21.24-8.06-29.3,1.35-21.88,8-32.32S311,265.94,324,255.28,345.53,248.16,345.53,248.16Z" style="fill:#407BFF;stroke:#263238;stroke-miterlimit:10"></path><polyline points="324.69 370.01 351.52 373.05 350.01 366.03 333.27 364.59" style="fill:none;stroke:#263238;stroke-miterlimit:10"></polyline><polyline points="315.31 364.2 313.95 368.8 320.68 369.56" style="fill:none;stroke:#263238;stroke-miterlimit:10"></polyline><path d="M325.38,318.23a29.81,29.81,0,0,1-3.46-3.81" style="fill:none;stroke:#263238;stroke-miterlimit:10"></path><path d="M334.71,326.11s-2.83-2.14-5.93-4.8" style="fill:none;stroke:#263238;stroke-miterlimit:10"></path><path d="M345.53,248.16S337,244.61,324,255.28,306.55,270,299.87,280.42a56.45,56.45,0,0,0-7.8,21.11c.16.78.33,1.57.52,2.38,3.72,15.72,7.86,23.32,7.86,23.32s7.2-35.82,19.73-50.34,33.34-23.35,33.34-23.35Z" style="fill:#407BFF;stroke:#263238;stroke-miterlimit:10"></path><path d="M314.26,178.29s-9.39,8.77-10.09,15.68-1.43,12.87-2.6,15.1-7.07,3.69-5.07,7.06,3.87,3.3,3.87,3.3,3,14.91,5.28,17,10.35.89,10.35.89l2.5,18.08s-16.79,14.89-20.06,35.64.47,32.59.47,32.59,2.19-32.69,9.75-44.93,25.12-23.83,27.71-25.92,9.16-4.64,9.16-4.64-3.12-7-3.54-10.16-.28-7.81.31-9.08,11.08-5.08,15-17.1-1.85-26.21-8-32.25S322.12,170.51,314.26,178.29Z" style="fill:#bdbdbd;stroke:#263238;stroke-miterlimit:10"></path><path d="M357.34,211.82c4-12-1.85-26.21-8-32.25s-27.21-9.06-35.07-1.28c0,0-.5.47-1.28,1.28a21.69,21.69,0,0,1,9.13-.3c6.29,1,6.15,6,4.44,10.79s-.42,5.64,2.79,8-.08,6.89,2.18,8.69,4.1-8,9-.94,1.61,10.26-1.45,12.24a22.93,22.93,0,0,1-5.53,2.7s4.63,5.43,9.2,7.67C344.94,226.79,353.78,222.62,357.34,211.82Z" style="fill:#263238;stroke:#263238;stroke-linecap:round;stroke-linejoin:round"></path><path d="M305.46,222.07s6.55-.54,9.58-3.46" style="fill:none;stroke:#263238;stroke-miterlimit:10"></path><path d="M309.62,206.6c.05,1.55-.54,2.83-1.31,2.86s-1.45-1.21-1.51-2.76.54-2.83,1.31-2.86S309.56,205.05,309.62,206.6Z" style="fill:#263238"></path><path d="M306.8,200.27s2.11-2.84,5.13.51" style="fill:none;stroke:#263238;stroke-miterlimit:10"></path><polygon points="316 237.34 323.81 234.4 318.37 244.17 316 237.34" style="fill:#263238;stroke:#263238;stroke-miterlimit:10"></polygon><polygon points="293.51 380.87 283.27 424 292.46 426.14 297.52 394.6 293.51 380.87" style="fill:#fff;stroke:#263238;stroke-miterlimit:10"></polygon><path d="M302.56,277.61a52.88,52.88,0,0,0-4.12,13.45c-3.27,20.74.47,32.59.47,32.59s2.17-32.25,9.6-44.67A26.86,26.86,0,0,1,302.56,277.61Z" style="fill:#fff;stroke:#263238;stroke-miterlimit:10"></path><path d="M334.2,291.07l-.7,36.6-64.05,10.56,1.4,17.25s35.55.7,52.09-.71,31-2.46,33.08-4.22,8.11-35.78,10.57-59.71-2.46-32-12.31-30.62" style="fill:#407BFF;stroke:#263238;stroke-miterlimit:10"></path><path d="M231.13,336.68,226,352.24l5,2.72s6.35,4.92,9.83,7.58,6.15,2.66,8,1.84,10.24-12.7,11.26-14.95-3.89-9-8.8-11.88-9-2.86-11.88-2A53.18,53.18,0,0,1,231.13,336.68Z" style="fill:#fff;stroke:#263238;stroke-miterlimit:10"></path><path d="M269.45,338.23l-8.1-.7a52.5,52.5,0,0,0-7.74-1.41c-2.11,0-4.93,2.11-6.34,3.17s-16.89,17.95-16.89,17.95,1.41,2.81,3.52,2.11,6-2.47,6-2.47-4.22,4.23-2.11,6.34,5.63,2.11,5.63,2.11l2.47-1.41a9.73,9.73,0,0,0,3.51,1.76c1.76.35,4.58-.35,7-1.76s8.71-8.75,8.71-8.75l5.4-2.09Z" style="fill:#bdbdbd;stroke:#263238;stroke-miterlimit:10"></path><path d="M233.92,337.35s10.24-5.94,14.74-4.3,10.45,11.67,8.81,13.11-4.3.81-5.73-.62a23.85,23.85,0,0,0-3.89-2.87,19.28,19.28,0,0,1-8.81,2.46" style="fill:#fff;stroke:#263238;stroke-miterlimit:10"></path><path d="M264.46,360.6l-3.25-1.74a2.25,2.25,0,0,1-.93-3.05h0a2.25,2.25,0,0,1,3.05-.92l3.25,1.73a2.26,2.26,0,0,1,.93,3.05h0A2.26,2.26,0,0,1,264.46,360.6Z" style="fill:#fff;stroke:#263238;stroke-miterlimit:10"></path><path d="M261.59,364.08l-3.25-1.74a2.26,2.26,0,0,1-.93-3h0a2.26,2.26,0,0,1,3-.92l3.25,1.73a2.25,2.25,0,0,1,.93,3h0A2.25,2.25,0,0,1,261.59,364.08Z" style="fill:#fff;stroke:#263238;stroke-miterlimit:10"></path><path d="M258.31,367.15l-3.25-1.74a2.24,2.24,0,0,1-.92-3.05h0a2.25,2.25,0,0,1,3.05-.92l3.25,1.74a2.25,2.25,0,0,1,.92,3.05h0A2.25,2.25,0,0,1,258.31,367.15Z" style="fill:#fff;stroke:#263238;stroke-miterlimit:10"></path><path d="M251.41,367.3l-.85-.45a2.25,2.25,0,0,1-.93-3.05h0a2.26,2.26,0,0,1,3.05-.93l.85.46a2.25,2.25,0,0,1,.93,3.05h0A2.25,2.25,0,0,1,251.41,367.3Z" style="fill:#fff;stroke:#263238;stroke-miterlimit:10"></path><polygon points="231.13 336.68 188.15 318.51 189.74 346.98 225.23 355.11 231.13 336.68" style="fill:#263238;stroke:#263238;stroke-linecap:round;stroke-linejoin:round"></polygon><polygon points="225.23 355.11 231.13 336.68 225.12 334.02 225 334.63 219.5 353.72 225.23 355.11" style="fill:#fff;stroke:#263238;stroke-miterlimit:10"></polygon><path d="M164,222.8l11,5.11s4.62,13.09,3.08,13.47-13.09-8.85-13.09-8.85Z" style="fill:#fff;stroke:#263238;stroke-linecap:round;stroke-linejoin:round"></path><path d="M170.39,220.18l.77-4.41s10.2.7,14.28.67,7.64-.55,7.61-4.88-2.41-19.1-2.41-19.1,4.58-1.05,6.35-3.1-.79-4.58-3.1-7.63-4.38-6.34-4.65-9.91-6.47-15.25-6.47-15.25,1-1.79-2.33-5.59-20.41-4.46-31.34,1-13.42,13.34-13.37,22,5,20.87,5,20.87-3.23,13.27-3.48,14-3.15,6.42-3.15,6.42,13.67,9.53,18.66,13.81,16.26,11.6,16.33,7.64.52-12.9.52-12.9Z" style="fill:#fff;stroke:#263238;stroke-linecap:round;stroke-linejoin:round"></path><path d="M185.46,178.82c.06,1.48-.28,2.69-.77,2.71s-.95-1.15-1-2.63.27-2.69.77-2.71S185.39,177.34,185.46,178.82Z" style="fill:#263238"></path><path d="M178.29,173.93s2.27-3.84,8.15-1.58" style="fill:none;stroke:#263238;stroke-linecap:round;stroke-linejoin:round;stroke-width:2px"></path><path d="M193.05,211.56c0-4.34-2.41-19.1-2.41-19.1s-2.81-1.51-8.16-.21-6.81,10-7.83,11-7.67-5-10.25-9.11S160,183,159.72,178.89s9.39-6.18,10.9-10S165,161,167.49,158.45s7.64-1.57,10.19-1.08a9,9,0,0,0,5.09-.8s1-1.79-2.33-5.59-20.41-4.46-31.34,1-13.42,13.34-13.37,22c.05,7,3.29,16.36,4.51,19.66a8.28,8.28,0,0,0,3.27.68c1-.26,1.76-3.32,2.25-6.39s7.86-6.67,7.86-6.67,1.33,9.17,1.34,10.95-1,10.71,3.92,15a91.76,91.76,0,0,0,12.28,8.59s10.2.7,14.28.67S193.08,215.89,193.05,211.56Z" style="fill:#263238;stroke:#263238;stroke-linecap:round;stroke-linejoin:round"></path><path d="M155.19,187.58s-2.12-12.22-5.68-11.69-5.58,5.13-3.76,11,5.39,5.32,7.42,4.8" style="fill:#fff;stroke:#263238;stroke-linecap:round;stroke-linejoin:round"></path><path d="M180.22,196.85s2.05,2.54,7.4,2.51" style="fill:none;stroke:#fff;stroke-linecap:round;stroke-linejoin:round"></path><path d="M123,457.13h54c.18-2.84,2.28-13.76,2.28-20.92,0-8.27,5.69-61.62,5.69-61.62l-70.23-.92,2.3,32.65Z" style="fill:#263238;stroke:#263238;stroke-linecap:round;stroke-linejoin:round"></path><path d="M130,217.13s-12.31,15.79-15.78,24.64-6.16,10.39-5.39,21.55S115,319.13,115,319.13l-10.78,58.13a118.11,118.11,0,0,0,39.65,6.92c22.32,0,32-1.92,33.49-2.69s15-4.23,15-4.23,0-65.82-4.24-88.53-9.62-40-11.54-44.27-8.09-18.09-8.09-18.09Z" style="fill:#263238;stroke:#263238;stroke-linecap:round;stroke-linejoin:round"></path><path d="M176.61,244.46c-1.93-4.23-8.09-18.09-8.09-18.09L130,217.13s-2.6,3.34-5.75,7.81c8.39,4.87,29.16,16.91,30.39,17.21,1.54.39,9.24-.38,9.24-.38L160.44,246s9.24,7.32,12.32,10.39c1.62,1.62,6.32,5.9,10.42,9.6C180.39,254.93,177.81,247.12,176.61,244.46Z" style="fill:#263238;stroke:#263238;stroke-linecap:round;stroke-linejoin:round"></path><polygon points="158.9 234.84 171.99 245.23 182.76 264.48 175.84 236.38 161.6 228.3 158.9 234.84" style="fill:#fff;stroke:#263238;stroke-linecap:round;stroke-linejoin:round"></polygon><polygon points="132.73 209.82 173.03 227.98 173.03 242.22 126.95 218.67 132.73 209.82" style="fill:#fff;stroke:#263238;stroke-linecap:round;stroke-linejoin:round"></polygon><rect x="116.38" y="355.49" width="69.64" height="56.35" style="fill:#407BFF;stroke:#263238;stroke-miterlimit:10"></rect><path d="M155.47,382.35s5.18,6.75,7.21,7.43a8,8,0,0,1,4,3.6c.9,1.35,2,11.48,2.7,12.16s.68,2.25-1.8,1.12-4-5-4-5l.9,9s2,.45.45,1.58-2.93,2.7-4.28,2a21.52,21.52,0,0,1-3.37-2.48,10.82,10.82,0,0,1-5,.45c-2.47-.45-2,.45-4.27-1.13s-2.26.23-3.38-2.7a138.46,138.46,0,0,1-4.28-16c-.45-2.93-.9-7-.9-7Z" style="fill:#fff;stroke:#263238;stroke-linecap:round;stroke-linejoin:round"></path><polygon points="156.38 378.07 157.95 385.05 138.59 387.75 137.69 380.77 156.38 378.07" style="fill:#fff;stroke:#263238;stroke-linecap:round;stroke-linejoin:round"></polygon><path d="M131.57,231s-13.47,4.23-13.85,10.39-4.85,80.87-2.92,85.87,20.86,55.67,20.86,55.67l21.94-2.69S146.36,321.48,146,320.32s7.54-66.62,7.54-66.62" style="fill:#263238;stroke:#263238;stroke-linecap:round;stroke-linejoin:round"></path><polyline points="150.93 272.5 145.97 320.32 150.7 350.03" style="fill:none;stroke:#878787;stroke-linecap:round;stroke-linejoin:round"></polyline><line x1="151.69" y1="265.18" x2="151.43" y2="267.72" style="fill:none;stroke:#878787;stroke-linecap:round;stroke-linejoin:round"></line><line x1="116.17" y1="257.78" x2="114.69" y2="302.68" style="fill:none;stroke:#878787;stroke-linecap:round;stroke-linejoin:round"></line><polyline points="166.49 342.19 181.29 341.65 182.62 346.98 158.1 348.55" style="fill:none;stroke:#878787;stroke-linecap:round;stroke-linejoin:round"></polyline><line x1="154.16" y1="342.63" x2="162.04" y2="342.35" style="fill:none;stroke:#878787;stroke-linecap:round;stroke-linejoin:round"></line><polyline points="127.52 226.21 154.67 242.15 163.91 241.77 160.44 246 178.33 260.25" style="fill:none;stroke:#878787;stroke-linecap:round;stroke-linejoin:round"></polyline></g><g id="freepik--Table--inject-228"><line x1="11.48" y1="457.13" x2="467.97" y2="457.13" style="fill:none;stroke:#263238;stroke-miterlimit:10"></line></g></svg>